<svg width="56" height="59" viewBox="0 0 56 59" fill="none" xmlns="http://www.w3.org/2000/svg">
<path d="M5.28253 37.0444C5.04869 37.6874 4.33501 38.0198 3.68948 37.7868C3.04395 37.5539 2.71027 36.843 2.94411 36.2L2.9977 36.052C3.23154 35.409 3.94523 35.0767 4.59076 35.3096C5.23629 35.5425 5.56997 36.2534 5.33612 36.8964L5.28253 37.0444ZM27.7532 33.223C27.5194 33.866 26.8057 34.1984 26.1602 33.9655C25.5146 33.7325 25.1809 33.0217 25.4148 32.3787C25.5634 31.9686 25.4465 31.4761 25.1395 31.0151C24.7571 30.4425 24.1018 29.9354 23.2688 29.6321C22.4333 29.3288 21.6027 29.2997 20.9401 29.4938C20.4067 29.6491 19.9999 29.95 19.8513 30.3575C19.6929 30.7943 19.8269 31.3499 20.1484 31.9686C20.5601 32.762 21.2617 33.6088 22.085 34.4483C23.0617 35.4455 23.9119 36.4863 24.4478 37.5224C25.0787 38.7331 25.2955 39.9511 24.8716 41.1133C24.4356 42.307 23.4247 43.1368 22.1459 43.5104C21.3396 43.7458 20.4165 43.7992 19.4737 43.6415L19.006 44.9177C18.7722 45.5607 18.0585 45.893 17.413 45.6601C16.7675 45.4272 16.4338 44.7163 16.6676 44.0733L17.1353 42.7947C16.3096 42.3094 15.6348 41.6786 15.1696 40.9822C14.434 39.8783 14.1953 38.5972 14.6313 37.4035C14.8651 36.7605 15.5788 36.4281 16.2243 36.661C16.8699 36.894 17.2035 37.6048 16.9697 38.2478C16.8211 38.6554 16.9356 39.148 17.2449 39.6114C17.6274 40.184 18.2826 40.6911 19.1157 40.9944C19.9512 41.2977 20.7818 41.3292 21.4444 41.1327C21.9778 40.9774 22.3846 40.6741 22.5332 40.269C22.6915 39.8322 22.5576 39.2742 22.236 38.6579C21.8244 37.8645 21.1228 37.0177 20.3019 36.1758C19.3252 35.181 18.475 34.1377 17.9367 33.1017C17.3083 31.891 17.0866 30.6754 17.5129 29.5108C17.9489 28.3171 18.9598 27.4873 20.2386 27.1136C21.0449 26.8783 21.968 26.8249 22.9108 26.9826L23.376 25.7064C23.6098 25.0634 24.3235 24.731 24.9691 24.964C25.6146 25.1969 25.9483 25.9078 25.7144 26.5508L25.2467 27.8318C26.0749 28.3147 26.7472 28.9479 27.2125 29.6443C27.9481 30.7482 28.1868 32.0318 27.7508 33.223H27.7532ZM31.5361 6.99714C33.039 7.54306 34.179 8.64214 34.8026 9.97663L34.8489 10.0882C35.431 11.4009 35.5236 12.9294 34.995 14.3804C34.4494 15.8774 33.3435 17.0129 32.0038 17.6364L31.8917 17.6825C30.5739 18.2624 29.0394 18.3546 27.5827 17.8281C26.0797 17.2846 24.9398 16.1831 24.3137 14.8486C23.6902 13.5142 23.5781 11.9395 24.1237 10.445C24.6718 8.94791 25.7752 7.81243 27.115 7.1913C28.4547 6.57017 30.0356 6.45856 31.536 7.00205L31.5361 6.99714ZM32.5421 11.0248C32.1865 10.2629 31.5385 9.63694 30.6884 9.3288C29.8358 9.02066 28.9322 9.08617 28.1673 9.44041C27.4024 9.79464 26.7739 10.4401 26.4646 11.2868C26.1552 12.136 26.221 13.0362 26.5766 13.7981C26.9323 14.5599 27.5802 15.1859 28.4328 15.494C29.2585 15.7925 30.1257 15.7439 30.8711 15.4237L30.9539 15.38C31.7188 15.0258 32.3472 14.3804 32.6566 13.5312C32.9562 12.7087 32.9075 11.8449 32.586 11.1024L32.5421 11.0199L32.5421 11.0248ZM37.9741 3.89858L37.9692 3.90101L44.0832 15.1397C44.5533 15.9986 44.8237 16.8987 44.8919 17.8232C44.9601 18.7403 44.8261 19.672 44.49 20.5989L32.2473 54.1031C37.1092 54.6102 42.0175 55.1804 46.8696 55.5856C47.934 55.6535 48.94 55.2605 49.7098 54.5859C50.4795 53.9139 51.0105 52.9603 51.1397 51.8976L53.5 17.3182C53.5414 16.6922 53.4611 16.1051 53.2589 15.564C53.0591 15.0278 52.7376 14.5328 52.2991 14.0888L42.9648 4.64829C42.3046 3.98107 41.4692 3.571 40.5898 3.44001C39.7129 3.30899 38.7946 3.45456 37.9713 3.89857L37.9741 3.89858ZM36.5418 1.89445C36.6173 1.82651 36.7025 1.76343 36.7951 1.71491C38.108 1.00645 39.5671 0.773526 40.9604 0.984585C42.3537 1.19325 43.6861 1.84833 44.7384 2.9135L54.0728 12.354C54.7646 13.0528 55.2761 13.8462 55.5976 14.7124C55.9191 15.5761 56.0507 16.5078 55.9825 17.4856L53.6075 52.1787C53.4053 53.8723 52.565 55.3839 51.3543 56.449C50.1047 57.5505 48.4508 58.1838 46.6824 58.0649C41.5257 57.684 36.1888 57.0022 31.0149 56.4708C30.3621 57.2885 29.5266 57.9339 28.5937 58.3682C27.0713 59.0791 25.2834 59.2222 23.5783 58.6327C17.2352 56.3665 10.6365 54.1052 4.37887 51.6717C2.65673 51.0384 1.34865 49.7695 0.630097 48.2336C-0.0933794 46.688 -0.227324 44.8635 0.403564 43.1384L1.63613 39.7635C1.86997 39.1205 2.58366 38.7881 3.22919 39.021C3.87472 39.254 4.20839 39.9648 3.97455 40.6078L2.74199 43.9828C2.34738 45.0649 2.43263 46.2125 2.88814 47.1879C3.34365 48.1609 4.16941 48.964 5.25338 49.3546L24.3237 56.2671C25.4076 56.6602 26.5598 56.5753 27.539 56.1216C28.5133 55.6751 29.3172 54.855 29.7118 53.7754L42.1422 19.7587C42.3566 19.1715 42.4418 18.5844 42.4004 18.0142C42.359 17.4464 42.186 16.8811 41.8864 16.3279L35.5484 4.67185C35.0442 3.745 34.2452 3.07779 33.3244 2.73567C32.4061 2.39356 31.3587 2.37658 30.3649 2.75023L17.6183 7.53484C17.0191 7.76048 16.5076 8.08318 16.1007 8.49566C15.6915 8.91056 15.3675 9.42251 15.1508 10.0242L6.6302 33.3432C6.39636 33.9862 5.68267 34.3186 5.03714 34.0856C4.39161 33.8527 4.05794 33.1418 4.29178 32.4988L12.8124 9.17983C13.1558 8.24088 13.6674 7.42807 14.3299 6.76085C14.9949 6.09121 15.806 5.57195 16.7463 5.21772L29.4929 0.433108C31.064 -0.156479 32.7277 -0.127361 34.1965 0.41855C35.0637 0.741245 35.8627 1.24347 36.5374 1.90342L36.5418 1.89445Z" fill="url(#paint0_linear_68_535)"/>
<defs>
<linearGradient id="paint0_linear_68_535" x1="0.326667" y1="59" x2="55.0433" y2="59" gradientUnits="userSpaceOnUse">
<stop stop-color="#FFF6AB"/>
<stop offset="0.184" stop-color="#FBC85F"/>
<stop offset="0.464" stop-color="#D19422"/>
<stop offset="0.768979" stop-color="#EDBA56"/>
<stop offset="1" stop-color="#B47E28"/>
</linearGradient>
</defs>
</svg>
