<svg width="56" height="56" viewBox="0 0 56 56" fill="none" xmlns="http://www.w3.org/2000/svg">
<path fill-rule="evenodd" clip-rule="evenodd" d="M44.7268 0.000427637C42.3252 0.0617896 40.3812 2.04477 40.3812 4.46054C40.3812 6.91464 42.3872 8.92815 44.8413 8.92815C47.2954 8.92815 49.3107 6.91464 49.3107 4.46054C49.3107 2.00643 47.2954 0.000427637 44.8413 0.000427637C44.8028 0.000427637 44.7649 -0.000534547 44.7268 0.000427637ZM29.7366 1.46774C29.7203 1.46987 29.7041 1.47241 29.6879 1.47537C29.6609 1.47798 29.634 1.48173 29.6073 1.48662C29.5711 1.49399 29.5353 1.50345 29.5002 1.51494C29.4774 1.52221 29.4549 1.53032 29.4327 1.53927C29.3993 1.55244 29.3667 1.56747 29.335 1.58429C29.3087 1.5981 29.283 1.61312 29.258 1.62931C29.2301 1.64791 29.2032 1.66796 29.1774 1.68937C29.1573 1.70609 29.138 1.72361 29.1193 1.74191C29.0927 1.76795 29.0676 1.79552 29.0442 1.82447C29.0277 1.84509 29.0121 1.86637 28.9973 1.88827C28.9783 1.91609 28.9607 1.9449 28.9447 1.97458C28.9302 2.00145 28.917 2.02901 28.9051 2.05714C28.8928 2.08599 28.8819 2.11542 28.8724 2.14534C28.8622 2.17739 28.8538 2.20995 28.847 2.2429C28.8411 2.26895 28.8362 2.29523 28.8325 2.32169C28.8297 2.33726 28.8273 2.3529 28.8252 2.3686C28.7998 2.8248 28.7998 3.27886 28.8233 3.73084C28.665 6.44657 27.5138 9.02755 25.5697 10.9717C23.6336 12.9078 21.0677 14.0539 18.3645 14.2197C18.1216 14.2194 17.8783 14.2273 17.6345 14.2404C17.6309 14.241 17.6273 14.2416 17.6237 14.2423C17.4403 14.2414 17.2579 14.2354 17.0739 14.2252C16.8212 14.2124 16.5736 14.2998 16.3849 14.4684C16.1963 14.6371 16.0817 14.8733 16.0663 15.1259C16.0589 15.2523 16.0766 15.3788 16.1183 15.4983C16.16 15.6178 16.225 15.7279 16.3094 15.8222C16.3937 15.9165 16.4959 15.9933 16.6101 16.048C16.7242 16.1027 16.848 16.1343 16.9744 16.141C17.2064 16.1537 17.4377 16.1595 17.6687 16.1599C17.6924 16.1614 17.7161 16.162 17.7398 16.1618C17.7725 16.1599 17.8048 16.1599 17.8375 16.1578C17.9875 16.1559 18.1367 16.1509 18.286 16.1447C21.2587 16.1273 24.1233 17.2967 26.2361 19.4096C28.1758 21.3493 29.3193 23.9229 29.4803 26.6317C29.4586 27.0892 29.4586 27.5509 29.484 28.0127C29.4861 28.0253 29.4886 28.0378 29.4912 28.0503C29.4944 28.083 29.4993 28.1156 29.5058 28.1479C29.5114 28.1801 29.5187 28.212 29.5275 28.2435C29.535 28.2683 29.5435 28.2927 29.553 28.3167C29.5661 28.3501 29.5812 28.3826 29.598 28.4143C29.6146 28.444 29.6328 28.4728 29.6524 28.5006C29.6661 28.5211 29.6805 28.5412 29.6957 28.5606C29.7196 28.5903 29.7453 28.6185 29.7726 28.6451C29.7918 28.664 29.8118 28.6822 29.8325 28.6995C29.8589 28.7209 29.8864 28.741 29.915 28.7595C29.9399 28.7757 29.9656 28.7908 29.9919 28.8046C30.0176 28.8183 30.0439 28.8308 30.0707 28.8422C30.1038 28.8566 30.1376 28.8691 30.172 28.8797C30.2005 28.888 30.2293 28.8949 30.2584 28.9004C30.287 28.9061 30.3159 28.9105 30.3449 28.9135C30.3604 28.9164 30.376 28.919 30.3917 28.9211C30.4093 28.921 30.4268 28.9203 30.4443 28.9192C30.4619 28.9203 30.4794 28.921 30.497 28.9211C30.5246 28.9192 30.5521 28.916 30.5794 28.9117C30.5806 28.9111 30.5818 28.9104 30.583 28.9098C30.6391 28.9021 30.6944 28.8896 30.7482 28.8722C30.7543 28.8703 30.7604 28.8684 30.7664 28.8664C30.8847 28.8248 30.9938 28.7604 31.0874 28.6769C31.0867 28.6776 31.088 28.6763 31.0874 28.6769C31.1806 28.593 31.2583 28.4897 31.3126 28.3766C31.3132 28.3753 31.3139 28.374 31.3145 28.3727C31.3414 28.3167 31.3628 28.2582 31.3784 28.1982C31.3797 28.1919 31.3809 28.1856 31.3821 28.1793C31.3954 28.1245 31.4039 28.0686 31.4075 28.0123C31.4082 27.9996 31.4085 27.9872 31.4094 27.9747C31.4094 27.9734 31.4094 27.972 31.4094 27.9707C31.4312 27.529 31.4312 27.0875 31.4094 26.6498C31.5662 23.934 32.7114 21.353 34.6555 19.4089C36.6301 17.4343 39.2616 16.2849 42.024 16.1572C42.1681 16.1552 42.3126 16.1524 42.4574 16.1459C42.688 16.144 42.9198 16.1478 43.1517 16.1608C43.2779 16.1679 43.4042 16.15 43.5235 16.1082C43.6428 16.0663 43.7526 16.0014 43.8468 15.917C43.9409 15.8326 44.0175 15.7305 44.072 15.6165C44.1266 15.5025 44.1582 15.3789 44.1649 15.2526C44.172 15.1266 44.1542 15.0004 44.1125 14.8812C44.0707 14.762 44.0059 14.6523 43.9218 14.5582C43.8376 14.4641 43.7357 14.3875 43.6219 14.3328C43.5081 14.2781 43.3847 14.2463 43.2586 14.2394C42.779 14.2133 42.2999 14.2133 41.8251 14.2394C38.8951 14.2238 36.0734 13.0548 33.9894 10.9708C32.0452 9.02661 30.9001 6.44563 30.7433 3.7299C30.7651 3.27793 30.7651 2.82388 30.7414 2.36767C30.7402 2.36136 30.739 2.35507 30.7378 2.34879C30.7341 2.29311 30.7256 2.23786 30.7123 2.18366C30.7111 2.1805 30.7099 2.17736 30.7087 2.17422C30.6933 2.11676 30.6727 2.06086 30.647 2.00723C30.6197 1.95101 30.587 1.89759 30.5493 1.84773C30.512 1.79811 30.4699 1.75223 30.4237 1.71073C30.4213 1.70951 30.4188 1.7083 30.4164 1.7071C30.3717 1.66701 30.3233 1.6312 30.2719 1.60014C30.2713 1.60014 30.2726 1.60014 30.2719 1.60014C30.139 1.52121 29.9871 1.47551 29.8328 1.46692C29.816 1.46712 29.7991 1.46776 29.7823 1.46884C29.7661 1.46779 29.7528 1.46797 29.7366 1.46774ZM44.8413 1.92182C46.2569 1.92182 47.3875 3.04482 47.3875 4.46054C47.3875 5.87625 46.2569 7.00675 44.8413 7.00675C43.4255 7.00675 42.3026 5.87625 42.3026 4.46054C42.3026 3.04482 43.4255 1.92182 44.8413 1.92182ZM4.46199 7.83611C2.00795 7.83611 0 9.84961 0 12.3037C0 14.7578 2.00795 16.7638 4.46199 16.7638C6.91611 16.7638 8.92961 14.7578 8.92961 12.3037C8.92961 9.84961 6.91611 7.83611 4.46199 7.83611ZM29.7853 8.04626C30.4353 9.63282 31.399 11.0934 32.6374 12.3319C33.9699 13.6643 35.558 14.6766 37.2833 15.3247C35.812 15.9704 34.4564 16.8869 33.296 18.0473C32.0582 19.2851 31.0976 20.7453 30.4477 22.331C29.7961 20.7453 28.8335 19.2851 27.5956 18.0473C26.2633 16.7149 24.6748 15.7044 22.9498 15.0563C24.4201 14.4106 25.7744 13.4926 26.9352 12.3319C28.1734 11.0936 29.1354 9.63257 29.7853 8.04626ZM4.46199 9.75751C5.87771 9.75751 7.00822 10.888 7.00822 12.3037C7.00822 13.7194 5.87771 14.8424 4.46199 14.8424C3.04631 14.8424 1.92328 13.7194 1.92328 12.3037C1.92328 10.888 3.04631 9.75751 4.46199 9.75751ZM43.828 23.9916C43.8208 23.9928 43.8135 23.9941 43.8062 23.9956C43.7741 23.9977 43.7421 24.0015 43.7104 24.0068C43.6807 24.0123 43.6512 24.0192 43.6222 24.0275C43.6038 24.0327 43.5857 24.0383 43.5677 24.0446C43.5332 24.0564 43.4994 24.0702 43.4664 24.0859C43.4493 24.0941 43.4325 24.1028 43.4159 24.112C43.3836 24.1296 43.3523 24.1491 43.3223 24.1702C43.3036 24.184 43.2854 24.1983 43.2678 24.2134C43.2437 24.2329 43.2205 24.2536 43.1984 24.2754C43.1828 24.2917 43.1678 24.3086 43.1534 24.326C43.1293 24.3528 43.1068 24.381 43.0859 24.4104C43.077 24.4246 43.0686 24.439 43.0605 24.4536C43.0396 24.4874 43.0208 24.5225 43.0042 24.5586C42.9978 24.5735 42.9917 24.5885 42.986 24.6037C42.9718 24.6386 42.9597 24.6743 42.9497 24.7107C42.944 24.7336 42.9392 24.7568 42.9352 24.7801C42.929 24.8093 42.9241 24.8387 42.9207 24.8683C42.9193 24.8789 42.9181 24.8896 42.917 24.9003C42.8989 25.2519 42.8953 25.6009 42.9134 25.9491C42.7932 27.9549 41.9434 29.8602 40.5061 31.2968C39.0677 32.7344 37.1627 33.5806 35.1547 33.6985C34.979 33.6988 34.8018 33.7043 34.6256 33.7134C34.4894 33.7127 34.3532 33.7076 34.2165 33.7003C34.0901 33.693 33.9636 33.7107 33.8441 33.7524C33.7246 33.7941 33.6145 33.859 33.5202 33.9434C33.4259 34.0278 33.3491 34.13 33.2944 34.2441C33.2397 34.3583 33.2081 34.4821 33.2014 34.6085C33.1943 34.7347 33.2122 34.861 33.254 34.9803C33.2958 35.0996 33.3608 35.2095 33.4452 35.3036C33.5295 35.3977 33.6316 35.4743 33.7457 35.5289C33.8597 35.5834 33.9833 35.615 34.1095 35.6217C34.3132 35.633 34.5164 35.6377 34.7193 35.6366C34.723 35.6364 34.7266 35.6368 34.7339 35.6366C34.8842 35.6356 35.0345 35.6308 35.1842 35.6235C37.3655 35.6264 39.4586 36.4894 41.0103 38.0403C42.45 39.4793 43.3016 41.3878 43.4195 43.3973C43.4014 43.742 43.405 44.0889 43.4232 44.4368C43.4243 44.4437 43.4255 44.4506 43.4268 44.4575C43.4297 44.4927 43.4345 44.5278 43.4413 44.5626C43.4454 44.5846 43.4502 44.6065 43.4558 44.6283C43.4641 44.6575 43.4738 44.6863 43.4849 44.7146C43.4945 44.7419 43.5055 44.7688 43.5176 44.7952C43.5267 44.813 43.5364 44.8306 43.5466 44.8478C43.5647 44.8808 43.5847 44.9128 43.6065 44.9434C43.617 44.9588 43.6279 44.9738 43.6392 44.9885C43.6603 45.0153 43.6829 45.041 43.7067 45.0654C43.7248 45.0824 43.7436 45.0987 43.763 45.1142C43.7887 45.1369 43.8156 45.1582 43.8436 45.178C43.8595 45.1886 43.8758 45.1986 43.8923 45.2082C43.9208 45.2253 43.9503 45.241 43.9805 45.255C44.0051 45.2661 44.0302 45.2762 44.0557 45.2852C44.084 45.296 44.1128 45.3054 44.1421 45.3135C44.1663 45.3194 44.1908 45.3244 44.2154 45.3284C44.2434 45.334 44.2716 45.3384 44.3 45.3415C44.3109 45.343 44.3218 45.3443 44.3327 45.3455C44.3509 45.3453 44.369 45.3447 44.3872 45.3435C44.4047 45.3447 44.4222 45.3453 44.4398 45.3455C44.4598 45.3441 44.4798 45.3422 44.4997 45.3396C44.4991 45.3396 44.5003 45.3396 44.4997 45.3396C44.6109 45.3266 44.7208 45.2942 44.8208 45.244C44.8232 45.2426 44.8256 45.2413 44.828 45.24C44.8759 45.2157 44.9217 45.1874 44.9649 45.1555C44.9673 45.1536 44.9697 45.1517 44.9722 45.1497C45.0145 45.1174 45.0541 45.0816 45.0905 45.0427C45.0912 45.0414 45.0918 45.0401 45.0925 45.0387C45.1298 44.9992 45.1637 44.9565 45.1938 44.9112C45.195 44.9092 45.1962 44.9073 45.1974 44.9053C45.2264 44.86 45.2515 44.8123 45.2725 44.7628C45.2732 44.7608 45.2738 44.7589 45.2745 44.757C45.3178 44.6551 45.3432 44.5466 45.3496 44.4361C45.3678 44.0826 45.3678 43.73 45.3516 43.3797C45.4717 41.3764 46.3176 39.4746 47.7533 38.0396C49.2015 36.5922 51.1272 35.7447 53.1516 35.636C53.3037 35.6352 53.4588 35.6302 53.6113 35.6229C53.7573 35.6232 53.9036 35.6276 54.0504 35.636C54.1767 35.6433 54.3033 35.6256 54.4228 35.5839C54.5423 35.5422 54.6523 35.4773 54.7467 35.3929C54.841 35.3085 54.9177 35.2063 54.9724 35.0922C55.0271 34.978 55.0588 34.8542 55.0655 34.7278C55.0728 34.6015 55.0551 34.4749 55.0134 34.3554C54.9717 34.2359 54.9068 34.1258 54.8224 34.0315C54.738 33.9372 54.6358 33.8604 54.5217 33.8057C54.4075 33.751 54.2837 33.7194 54.1573 33.7127C53.791 33.6927 53.4261 33.6935 53.0634 33.7127C50.8887 33.7051 48.7972 32.8419 47.2504 31.2959C45.8144 29.8607 44.9626 27.9577 44.8412 25.954C44.8593 25.6039 44.8594 25.253 44.8393 24.8994C44.8387 24.8945 44.838 24.8895 44.8373 24.8846C44.8224 24.6647 44.7322 24.4567 44.5821 24.2954C44.5797 24.2934 44.5773 24.2915 44.5748 24.2896C44.5384 24.2507 44.4988 24.2149 44.4565 24.1826C44.4505 24.1788 44.4444 24.175 44.4383 24.1714C44.2911 24.065 44.1167 24.0025 43.9354 23.9912C43.9141 23.9912 43.8928 23.9918 43.8715 23.9931C43.8571 23.9922 43.8424 23.9919 43.828 23.9916ZM14.0915 26.6429C14.0789 26.6446 14.0663 26.6465 14.0537 26.6487C14.0223 26.6521 13.991 26.6571 13.9601 26.6636C13.9285 26.6695 13.8972 26.677 13.8664 26.6861C13.8365 26.6953 13.807 26.7059 13.7782 26.718C13.7487 26.7304 13.7198 26.7441 13.6917 26.7593C13.6667 26.7726 13.6422 26.787 13.6184 26.8025C13.5912 26.8199 13.5649 26.8387 13.5396 26.8588C13.5106 26.8828 13.4831 26.9085 13.4572 26.9357C13.4416 26.9514 13.4266 26.9677 13.4122 26.9845C13.3879 27.0132 13.3654 27.0432 13.3446 27.0745C13.3291 27.0983 13.3147 27.1227 13.3014 27.1477C13.2847 27.1787 13.2696 27.2107 13.2564 27.2434C13.2468 27.2687 13.2384 27.2943 13.231 27.3203C13.2223 27.3494 13.2151 27.3788 13.2092 27.4085C13.2011 27.4438 13.1951 27.4795 13.191 27.5155C13.1884 27.5273 13.186 27.5392 13.1838 27.5511C13.162 27.9574 13.162 28.3626 13.1801 28.7651C13.0407 31.1479 12.0381 33.4125 10.3318 35.1184C8.62723 36.8227 6.36654 37.8298 3.98598 37.9724C3.77648 37.9724 3.56596 37.98 3.35552 37.9912C3.19213 37.9905 3.02801 37.9854 2.86393 37.9763C2.73773 37.9693 2.61137 37.9871 2.49209 38.029C2.37281 38.0708 2.26296 38.1358 2.16883 38.2201C2.0747 38.3045 1.99815 38.4066 1.94356 38.5206C1.88897 38.6346 1.85741 38.7583 1.8507 38.8845C1.83843 39.1381 1.92708 39.3863 2.09725 39.5748C2.26743 39.7632 2.5053 39.8766 2.75885 39.8902C2.9669 39.9015 3.1747 39.9088 3.3818 39.9091C3.40547 39.9113 3.42921 39.9127 3.45297 39.9131C3.50235 39.9102 3.55173 39.9091 3.60111 39.9073C3.68317 39.9063 3.76523 39.9026 3.84692 39.8997C6.49068 39.8606 9.0433 40.8859 10.9208 42.763C12.6267 44.4685 13.6292 46.7323 13.7691 49.1145C13.7473 49.5201 13.7473 49.9284 13.771 50.3379C13.7732 50.3498 13.7757 50.3616 13.7783 50.3734C13.7822 50.4107 13.7882 50.4476 13.7964 50.4842C13.8005 50.5068 13.8053 50.5294 13.811 50.5517C13.8212 50.5855 13.8334 50.6187 13.8473 50.6511C13.8606 50.6832 13.8756 50.7145 13.8923 50.745C13.9037 50.7654 13.9158 50.7855 13.9286 50.805C13.9487 50.837 13.9706 50.8677 13.9943 50.897C14.0139 50.9198 14.0345 50.9418 14.0561 50.9627C14.0776 50.9844 14.1001 51.0051 14.1236 51.0247C14.1494 51.0461 14.1763 51.0661 14.2042 51.0847C14.2286 51.1009 14.2536 51.1159 14.2794 51.1298C14.3069 51.1443 14.3351 51.1574 14.364 51.1692C14.3964 51.1829 14.4297 51.1947 14.4634 51.2048C14.4888 51.2121 14.5145 51.2184 14.5404 51.2237C14.5745 51.2305 14.6089 51.2354 14.6435 51.2385C14.6561 51.2407 14.6687 51.2427 14.6813 51.2444C14.6989 51.2442 14.7164 51.2435 14.7339 51.2424C14.7521 51.2436 14.7702 51.2442 14.7884 51.2444C14.8753 51.2397 14.9612 51.2233 15.0437 51.1956C15.0522 51.1925 15.0606 51.1894 15.0691 51.1861C15.1237 51.1665 15.1764 51.142 15.2267 51.1129C15.2291 51.111 15.2315 51.1091 15.2339 51.1071C15.2852 51.0766 15.3336 51.0415 15.3784 51.002C15.3796 51.0007 15.3809 50.9994 15.3821 50.998C15.4231 50.9601 15.4608 50.9187 15.4946 50.8742C15.502 50.8656 15.5093 50.8569 15.5164 50.848C15.5501 50.802 15.5796 50.753 15.6046 50.7017C15.6053 50.6991 15.6059 50.6966 15.6066 50.6941C15.6581 50.585 15.6886 50.4673 15.6966 50.3469C15.6973 50.3438 15.6979 50.3407 15.6985 50.3375C15.7203 49.928 15.7203 49.5197 15.7004 49.1141C15.8417 46.732 16.8504 44.4681 18.5562 42.7626C20.3095 41.0098 22.6515 39.9993 25.1066 39.9049C25.1821 39.904 25.258 39.9021 25.3335 39.8991C25.563 39.8951 25.7934 39.8996 26.0241 39.9122C26.2777 39.9245 26.5259 39.8358 26.7143 39.6656C26.9028 39.4955 27.0162 39.2576 27.0298 39.0041C27.0442 38.7504 26.9575 38.5014 26.7887 38.3115C26.6199 38.1216 26.3827 38.0063 26.1291 37.9908C25.6994 37.9672 25.2712 37.9654 24.8457 37.9889C22.2717 37.9751 19.7983 36.949 17.967 35.1181C16.2603 33.4117 15.2535 31.1463 15.113 28.7628C15.1312 28.361 15.1312 27.9564 15.1094 27.5507C15.1088 27.5476 15.1081 27.5444 15.1075 27.5413C15.1036 27.4869 15.0951 27.4329 15.0821 27.3799C15.0798 27.3712 15.0774 27.3624 15.0748 27.3538C15.0594 27.2963 15.0388 27.2404 15.0131 27.1868C15.0095 27.1798 15.0059 27.1729 15.0022 27.1661C14.9775 27.1168 14.9486 27.0697 14.9158 27.0253C14.9134 27.0234 14.9109 27.0215 14.9085 27.0195C14.8721 26.9714 14.8313 26.9268 14.7865 26.8863C14.7859 26.8857 14.7872 26.887 14.7865 26.8863C14.7402 26.8453 14.688 26.8069 14.6346 26.7756C14.634 26.7756 14.6353 26.7756 14.6346 26.7756C14.5845 26.7458 14.5298 26.7207 14.4751 26.7006C14.4643 26.6966 14.4534 26.6929 14.4425 26.6893C14.3935 26.6735 14.3434 26.6616 14.2925 26.6537C14.284 26.6523 14.2756 26.651 14.2671 26.6497C14.2435 26.6463 14.2197 26.6438 14.1959 26.6421C14.1784 26.6423 14.1608 26.6429 14.1433 26.644C14.1251 26.6429 14.1097 26.643 14.0915 26.6429ZM43.8768 29.7989C44.3712 30.8464 45.0469 31.8138 45.8845 32.651C46.7952 33.5612 47.8613 34.2797 49.0181 34.7844C48.0583 35.2669 47.1706 35.9024 46.3949 36.6776C45.5565 37.5156 44.8812 38.4853 44.3853 39.5353C43.8894 38.4851 43.2124 37.5157 42.3739 36.6776C41.4632 35.7674 40.3992 35.0511 39.2441 34.548C40.2052 34.064 41.0943 33.4272 41.871 32.651C42.7084 31.814 43.3825 30.8461 43.8768 29.7989ZM14.1459 32.8743C14.7264 34.2047 15.553 35.4299 16.602 36.4787C17.7361 37.6126 19.0789 38.4878 20.5368 39.07C19.3063 39.6426 18.1708 40.4286 17.1912 41.4079C16.1427 42.4563 15.3136 43.6808 14.7332 45.0106C14.1528 43.681 13.3254 42.4561 12.277 41.4079C11.1434 40.2745 9.80349 39.3987 8.34795 38.8148C9.57613 38.2437 10.7089 37.4575 11.6878 36.4787C12.7369 35.4299 13.5654 34.2048 14.1459 32.8743ZM29.2825 46.7912C26.8284 46.7912 24.8224 48.7972 24.8224 51.2513C24.8224 53.7054 26.8284 55.7189 29.2825 55.7189C31.7366 55.7189 33.7501 53.7054 33.7501 51.2513C33.7501 48.7972 31.7366 46.7912 29.2825 46.7912ZM29.2825 48.7126C30.6982 48.7126 31.8287 49.8356 31.8287 51.2513C31.8287 52.667 30.6982 53.7975 29.2825 53.7975C27.8668 53.7975 26.7438 52.667 26.7438 51.2513C26.7438 49.8356 27.8668 48.7126 29.2825 48.7126Z" fill="url(#paint0_linear_68_537)"/>
<defs>
<linearGradient id="paint0_linear_68_537" x1="0.321225" y1="55.7189" x2="54.1264" y2="55.7189" gradientUnits="userSpaceOnUse">
<stop stop-color="#FFF6AB"/>
<stop offset="0.184" stop-color="#FBC85F"/>
<stop offset="0.464" stop-color="#D19422"/>
<stop offset="0.768979" stop-color="#EDBA56"/>
<stop offset="1" stop-color="#B47E28"/>
</linearGradient>
</defs>
</svg>
