<svg width="72" height="76" viewBox="0 0 72 76" fill="none" xmlns="http://www.w3.org/2000/svg">
<path d="M37.8195 27.3982C37.7485 27.3476 37.6883 27.2833 37.6425 27.2092C37.5966 27.1351 37.566 27.0525 37.5524 26.9664C37.5384 26.8845 37.5407 26.8006 37.5595 26.7197C37.5782 26.6387 37.6128 26.5623 37.6614 26.4949C38.0662 25.9322 38.3411 25.2866 38.4661 24.6048C38.5912 23.923 38.5633 23.2219 38.3846 22.5521C38.1673 21.746 37.735 21.0141 37.1339 20.4347C36.5327 19.8553 35.7854 19.4502 34.9719 19.2626C34.9274 19.2536 34.8863 19.2322 34.8533 19.201C34.8203 19.1698 34.7967 19.13 34.7853 19.086C34.771 19.0379 34.7703 18.9868 34.7832 18.9383C34.7961 18.8898 34.8222 18.8458 34.8585 18.8112C35.7007 17.952 36.3264 16.9047 36.684 15.756C37.0416 14.6072 37.1209 13.3898 36.9151 12.2044C36.7094 11.019 36.2247 9.8995 35.5009 8.93839C34.7772 7.97727 33.8352 7.20209 32.7528 6.67687C32.4747 6.54336 32.2483 6.32199 32.1086 6.04697C31.689 5.21686 31.1021 4.48254 30.3849 3.89018C29.6678 3.29782 28.8359 2.86022 27.9414 2.60489C27.047 2.34956 26.1094 2.28203 25.1876 2.40653C24.2658 2.53103 23.3798 2.84487 22.5851 3.32834C21.5906 2.54397 20.3954 2.05546 19.1362 1.91871C17.877 1.78196 16.6048 2.0025 15.4651 2.55508C14.3254 3.10767 13.3643 3.96998 12.6918 5.04331C12.0193 6.11664 11.6626 7.35762 11.6626 8.62421C11.6626 8.72344 11.6648 8.82306 11.6693 8.92307C11.4127 9.06935 11.0737 9.27815 10.6176 9.58167C9.56836 10.2618 8.80373 11.3019 8.46754 12.5063C8.05507 14.0566 8.41668 15.5889 9.51318 16.939C9.60494 17.0496 9.6703 17.1796 9.7043 17.3192C9.73829 17.4589 9.74003 17.6044 9.70939 17.7448C9.68045 17.8766 9.62156 18 9.5373 18.1054C9.45303 18.2109 9.34564 18.2955 9.22343 18.3528C6.7164 19.5627 3.71758 21.9514 3.66159 26.4608C3.6589 26.712 3.6702 26.9631 3.69542 27.213C3.10977 27.769 2.64125 28.4366 2.31741 29.1764C1.99357 29.9162 1.82095 30.7134 1.80972 31.5209C1.79848 32.3284 1.94884 33.13 2.25197 33.8785C2.5551 34.627 3.00486 35.3074 3.5748 35.8796C3.75013 36.0493 3.98499 36.1437 4.22905 36.1424C4.47311 36.141 4.70694 36.0442 4.88042 35.8725C5.0539 35.7008 5.15322 35.468 5.15708 35.224C5.16095 34.9799 5.06906 34.7441 4.9011 34.567C4.48361 34.1487 4.15932 33.6467 3.94952 33.0942C3.73972 32.5417 3.64915 31.951 3.68377 31.361C3.71838 30.771 3.87739 30.1949 4.15035 29.6707C4.42332 29.1465 4.80407 28.6859 5.26762 28.3193C5.39747 28.2161 5.49745 28.0801 5.55728 27.9254C5.61711 27.7706 5.63462 27.6028 5.608 27.439C5.55403 27.124 5.52757 26.8048 5.52891 26.4851C5.5723 22.931 8.00374 21.0159 10.0358 20.0353C10.412 19.8554 10.7422 19.5921 11.0015 19.2656C11.2608 18.939 11.4424 18.5577 11.5324 18.1505C11.625 17.7351 11.6219 17.3041 11.5232 16.8902C11.4245 16.4762 11.2328 16.0901 10.9627 15.7613C10.2394 14.8701 10.0127 13.9626 10.2723 12.9869C10.4916 12.2225 10.9823 11.5643 11.6523 11.1359C12.0649 10.8335 12.5059 10.5719 12.969 10.3548C13.1733 10.283 13.3461 10.1423 13.4581 9.95702C13.57 9.77171 13.614 9.55324 13.5826 9.33904C13.548 9.10242 13.5304 8.8636 13.5301 8.62445C13.5299 7.65996 13.8156 6.71705 14.3512 5.91491C14.8867 5.11277 15.648 4.4874 16.5389 4.11784C17.4298 3.74828 18.4102 3.65112 19.3563 3.83865C20.3024 4.02617 21.1717 4.48996 21.8542 5.17139C22.0154 5.33235 22.2299 5.42879 22.4573 5.44254C22.6846 5.45629 22.9092 5.3864 23.0886 5.24605C23.6564 4.80217 24.3156 4.48969 25.0187 4.3311C25.7217 4.17251 26.4512 4.17175 27.1546 4.32889C27.858 4.48603 28.5178 4.79714 29.0866 5.23985C29.6553 5.68256 30.1188 6.24585 30.4438 6.88917C30.7665 7.52879 31.2914 8.04398 31.9369 8.35475C32.7533 8.7506 33.4637 9.33499 34.0096 10.0596C34.5555 10.7843 34.9211 11.6284 35.0763 12.5223C35.2316 13.4162 35.1719 14.3342 34.9023 15.2004C34.6326 16.0667 34.1608 16.8564 33.5257 17.5043C33.2573 17.7737 33.0661 18.1102 32.9721 18.4787C32.8781 18.8472 32.8847 19.2342 32.9912 19.5993C33.0926 19.9608 33.289 20.2885 33.5601 20.5482C33.8311 20.808 34.1669 20.9904 34.5324 21.0763C35.0173 21.1845 35.4638 21.4224 35.8241 21.7646C36.1844 22.1068 36.4449 22.5404 36.5779 23.0192C36.6901 23.4224 36.7099 23.8458 36.636 24.2577C36.5621 24.6697 36.3963 25.0597 36.151 25.3988C35.9571 25.6653 35.8184 25.9676 35.7427 26.2883C35.6671 26.6089 35.6562 26.9415 35.7105 27.2664C35.763 27.5958 35.8807 27.9114 36.0565 28.1948C36.2324 28.4782 36.4631 28.7237 36.7349 28.917C37.4704 29.4388 38.0578 30.1426 38.4397 30.9595C38.8217 31.7764 38.9851 32.6784 38.9139 33.5774C38.8276 34.6322 38.4256 35.6365 37.7601 36.4594C37.0946 37.2824 36.1967 37.8857 35.1833 38.1908L35.1324 34.2166C35.0962 31.2241 32.8503 28.7341 29.7922 28.2971L27.8623 28.0211L26.5584 27.7071H26.557C26.5014 27.693 26.4468 27.6748 26.3937 27.6527C26.3755 27.6453 26.3578 27.6373 26.3401 27.6294C26.3072 27.614 26.2755 27.5965 26.2442 27.5783C26.2232 27.566 26.2017 27.555 26.1814 27.5408C26.1674 27.5312 26.1551 27.52 26.1413 27.51C26.118 27.4918 26.0921 27.474 26.0688 27.4537C26.066 27.4512 26.0625 27.4493 26.0594 27.4467C25.9369 27.3382 25.8388 27.2048 25.7717 27.0555C25.7046 26.9061 25.67 26.7442 25.6703 26.5805V24.7342C26.5738 24.1596 27.3178 23.3665 27.8334 22.4281C28.3491 21.4897 28.6197 20.4365 28.6203 19.3657V18.5191C28.6204 18.2908 28.5367 18.0704 28.3851 17.8996C28.2336 17.7288 28.0247 17.6196 27.798 17.5924C26.7432 17.4665 25.9801 17.0888 25.5291 16.4698C24.7772 15.4377 25.0418 13.9919 25.0481 13.9574C25.0724 13.8366 25.0725 13.7122 25.0485 13.5913C25.0245 13.4705 24.9767 13.3556 24.9081 13.2533C24.8394 13.151 24.7511 13.0633 24.6484 12.9952C24.5456 12.9272 24.4304 12.8802 24.3094 12.8569C23.6704 12.734 21.7259 12.36 21.7049 9.34534C21.7039 9.20167 21.6697 9.06018 21.605 8.9319C21.5403 8.80362 21.4469 8.692 21.332 8.60575C21.217 8.5195 21.0838 8.46095 20.9425 8.43465C20.8013 8.40835 20.6559 8.41502 20.5176 8.45414C19.1857 8.83504 18.0136 9.63849 17.1779 10.7434C16.3423 11.8484 15.8884 13.195 15.8846 14.5803V19.3648C15.8852 20.4355 16.1559 21.4888 16.6716 22.4271C17.1872 23.3655 17.9312 24.1586 18.8346 24.7332V26.5796C18.8349 26.7437 18.8001 26.9059 18.7327 27.0556C18.6653 27.2052 18.5667 27.3387 18.4436 27.4472C18.4413 27.4493 18.4385 27.4507 18.4359 27.453C18.4126 27.4731 18.3893 27.4906 18.3638 27.5088C18.3503 27.5188 18.3377 27.5303 18.3237 27.5398C18.3032 27.5536 18.2815 27.565 18.2605 27.5776C18.2295 27.5958 18.1977 27.6131 18.1648 27.6285C18.1471 27.6369 18.1294 27.6448 18.1112 27.6518C18.0581 27.674 18.0035 27.6923 17.9479 27.7066L16.6489 28.0195C14.7164 28.2308 12.936 29.167 11.6668 30.6394L0.958358 43.0276C0.349863 43.7245 0.0101013 44.6157 0.000221671 45.5409C-0.00965797 46.466 0.310993 47.3643 0.904466 48.0741C2.39384 49.8602 5.10034 52.6701 9.53651 55.9129C9.70258 56.0355 9.82425 56.2087 9.88318 56.4065C9.9421 56.6043 9.93506 56.8159 9.86313 57.0094C8.78996 60.0299 9.19986 62.5421 11 64.1684C10.1602 67.5837 9.71302 71.0836 9.66716 74.6003C9.6687 74.8468 9.7677 75.0827 9.94254 75.2564C10.1174 75.4302 10.3539 75.5277 10.6004 75.5277H10.6057C10.8532 75.5264 11.09 75.4268 11.264 75.2508C11.438 75.0749 11.5351 74.8371 11.5338 74.5896C11.5338 74.5014 11.5305 67.2762 13.9946 60.8717C15.8947 62.9969 17.5607 65.3204 18.9639 67.802C19.3077 68.4112 19.8142 68.9128 20.4267 69.2508C20.6434 69.3704 20.8988 69.3989 21.1366 69.3302C21.2543 69.2961 21.3642 69.2392 21.4599 69.1627C21.5557 69.0862 21.6354 68.9916 21.6946 68.8843C21.7538 68.777 21.7913 68.659 21.8049 68.5372C21.8185 68.4154 21.808 68.2921 21.774 68.1744C21.74 68.0567 21.6831 67.9468 21.6066 67.851C21.5301 67.7553 21.4354 67.6755 21.3281 67.6163C21.0185 67.4456 20.7626 67.192 20.589 66.884C18.9811 64.0346 17.0387 61.3874 14.8032 58.9985C14.8098 58.9847 14.8161 58.9707 14.8228 58.9572C14.8975 58.8037 14.9733 58.6523 15.0503 58.503C15.0666 58.471 15.0834 58.4393 15.1 58.4076C15.1711 58.2712 15.2432 58.1365 15.3163 58.0037C15.3256 57.9872 15.3344 57.9704 15.3438 57.9538C16.7965 60.0654 19.3281 62.9718 22.2525 62.9718C25.1768 62.9718 27.7086 60.0654 29.1614 57.9538C29.351 58.296 29.5314 58.6447 29.7026 58.9999C27.4673 61.3885 25.525 64.0352 23.9168 66.884C23.9138 66.8891 23.9126 66.8947 23.9098 66.8999C23.907 66.905 23.9026 66.9097 23.8998 66.9153C23.8128 67.0842 21.7639 71.0885 21.3274 74.4741C21.2958 74.7196 21.363 74.9675 21.5142 75.1635C21.6654 75.3594 21.8883 75.4872 22.1337 75.5188C22.1736 75.5239 22.2138 75.5265 22.2541 75.5265C22.4808 75.5263 22.6996 75.4436 22.8697 75.2938C23.0399 75.144 23.1497 74.9374 23.1786 74.7126C23.5606 71.7478 25.4206 68.0421 25.5518 67.7836C26.9527 65.3085 28.6152 62.991 30.5108 60.8707C32.9749 67.2748 32.9721 74.5 32.9716 74.5887C32.9703 74.8361 33.0673 75.0739 33.2413 75.2498C33.4153 75.4257 33.652 75.5254 33.8994 75.5268H33.9048C34.1513 75.5268 34.3878 75.4293 34.5626 75.2555C34.7374 75.0818 34.8364 74.8459 34.838 74.5994C34.8408 74.1396 34.8506 63.2518 30.0941 55.8758C30.0731 55.8434 30.0563 55.81 30.0362 55.7776L29.9896 55.6985L29.9863 55.6943C29.6876 55.2049 29.4671 54.6719 29.3331 54.1144C28.86 52.1123 28.52 50.0812 28.3152 48.0342C28.3152 48.0316 28.3152 48.0293 28.3152 48.0267C28.2788 47.6082 28.2536 47.2118 28.2398 46.842C28.4741 46.7337 28.7021 46.6124 28.9229 46.4788C29.0062 47.8853 29.0925 49.1685 29.1947 50.618C29.2114 50.8534 29.3166 51.0737 29.4891 51.2347C29.6617 51.3956 29.8889 51.4852 30.1249 51.4854C30.1468 51.4854 30.169 51.4854 30.1914 51.4833C30.3136 51.4747 30.433 51.442 30.5427 51.3873C30.6523 51.3325 30.7501 51.2567 30.8305 51.1642C30.9108 51.0716 30.9722 50.9641 31.011 50.8479C31.0498 50.7316 31.0653 50.6089 31.0567 50.4866C30.9216 48.5736 30.8143 46.9517 30.7067 44.9481C30.7301 44.9199 30.7534 44.8937 30.7767 44.8648C30.7797 44.8611 30.7828 44.8567 30.7858 44.8529C31.2138 44.3163 31.5614 43.7203 31.8177 43.0836C33.1256 39.8561 32.323 35.5046 29.4336 30.132L29.5269 30.1455C31.6679 30.4516 33.2399 32.1736 33.2651 34.2406L33.3285 39.201C33.32 39.2668 33.3185 39.3333 33.3241 39.3993C33.3241 39.4133 33.3297 39.4262 33.3316 39.4402L33.4466 48.4072C33.4712 50.2818 33.655 52.151 33.996 53.9945L36.4298 67.1355C36.651 68.2901 36.4746 69.4856 35.9293 70.5272C35.8126 70.7454 35.7873 71.0012 35.8591 71.2381C35.9309 71.4749 36.0938 71.6736 36.3121 71.7904C36.5303 71.9071 36.786 71.9324 37.0229 71.8606C37.2598 71.7889 37.4585 71.6259 37.5753 71.4077C38.3196 69.9924 38.5627 68.3667 38.2649 66.7956L35.8314 53.6536C35.5098 51.9143 35.3363 50.1509 35.313 48.3823L35.2071 40.1121C36.6963 39.7793 38.04 38.9788 39.0418 37.8278C40.0437 36.6768 40.651 35.2354 40.7752 33.7145C40.8711 32.496 40.6492 31.2734 40.1311 30.1662C39.613 29.0591 38.8166 28.1054 37.8195 27.3982ZM17.751 19.3648V14.5803C17.7532 13.7979 17.9585 13.0294 18.3467 12.35C18.735 11.6707 19.2929 11.1037 19.9659 10.7045C20.3259 12.5628 21.4303 13.8816 23.1332 14.4711C23.0876 15.5647 23.3938 16.644 24.0069 17.5507C24.6767 18.4507 25.6541 19.073 26.753 19.2993V19.3643C26.753 20.5581 26.2788 21.7029 25.4347 22.5471C24.5906 23.3912 23.4457 23.8654 22.252 23.8654C21.0582 23.8654 19.9134 23.3912 19.0693 22.5471C18.2252 21.7029 17.751 20.5581 17.751 19.3643V19.3648ZM19.8299 28.7042C20.389 28.1386 20.7021 27.3749 20.701 26.5796V25.5402C21.7194 25.7964 22.7855 25.7964 23.8039 25.5402V26.5796C23.8028 27.375 24.116 28.1387 24.6753 28.7045C25.1631 29.8681 27.9795 37.0661 24.2628 39.7243C23.9367 39.9558 23.5722 40.1275 23.1861 40.2315V38.5637C23.2808 38.3788 23.4135 38.2159 23.5753 38.0857C23.7372 37.9555 23.9247 37.8609 24.1256 37.808C24.3692 37.7644 24.5856 37.6258 24.727 37.4227C24.8685 37.2196 24.9235 36.9687 24.8799 36.725C24.8363 36.4814 24.6977 36.2651 24.4946 36.1236C24.2915 35.9822 24.0405 35.9272 23.7969 35.9708C23.2199 36.0905 22.6862 36.3646 22.2529 36.764C21.8196 36.3646 21.286 36.0904 20.7089 35.9708C20.4643 35.9285 20.2128 35.9848 20.0095 36.1273C19.8062 36.2699 19.6675 36.4871 19.6239 36.7316C19.6024 36.8518 19.6049 36.9751 19.6313 37.0943C19.6576 37.2136 19.7073 37.3264 19.7774 37.4264C19.8475 37.5264 19.9367 37.6116 20.0398 37.677C20.143 37.7424 20.258 37.7867 20.3784 37.8075C20.5797 37.8604 20.7676 37.9552 20.9298 38.0856C21.092 38.2161 21.2249 38.3793 21.3197 38.5646V40.2315C20.9336 40.1275 20.569 39.9557 20.2431 39.7241C16.5343 37.0724 19.3439 29.8674 19.8299 28.7042ZM16.1888 48.0325C15.9841 50.0798 15.6441 52.1113 15.1711 54.1137C15.0369 54.6707 14.8165 55.2032 14.5179 55.6922C14.5165 55.6945 14.5146 55.6966 14.5132 55.699L14.4628 55.7855C14.4444 55.8152 14.429 55.8455 14.4101 55.8751C13.2149 57.783 12.2756 59.8396 11.6161 61.9922C10.8507 60.6573 11.1495 58.9619 11.621 57.6325C11.8292 57.0606 11.8457 56.4365 11.6682 55.8544C11.4906 55.2722 11.1286 54.7635 10.6367 54.4051C6.35385 51.2742 3.75934 48.5838 2.33692 46.8782C2.02817 46.5077 1.8618 46.0391 1.86774 45.5569C1.87369 45.0746 2.05156 44.6103 2.36935 44.2475L13.0778 31.8594C13.586 31.2722 14.2065 30.7925 14.9026 30.4484C13.0339 33.9985 12.0897 37.0953 12.0797 39.7078L7.50962 43.4746C7.16875 43.755 6.88655 44.0998 6.67917 44.4894C6.4718 44.879 6.34332 45.3057 6.3011 45.745C6.25889 46.1843 6.30376 46.6277 6.43315 47.0496C6.56254 47.4716 6.77391 47.8639 7.05515 48.204C8.929 50.4602 11.1792 52.8191 12.7371 54.4007C12.8229 54.4891 12.9252 54.5598 13.0384 54.6085C13.1515 54.6572 13.2732 54.683 13.3964 54.6844C13.5196 54.6859 13.6418 54.6629 13.7561 54.6169C13.8703 54.5709 13.9744 54.5027 14.0621 54.4162C14.1499 54.3298 14.2197 54.2268 14.2675 54.1133C14.3153 53.9998 14.3401 53.8779 14.3406 53.7547C14.341 53.6315 14.317 53.5095 14.2701 53.3956C14.2231 53.2817 14.1541 53.1782 14.0669 53.0912C12.5344 51.5353 10.3232 49.2184 8.4911 47.0116C8.36674 46.8623 8.27329 46.6898 8.21618 46.5041C8.15906 46.3184 8.13943 46.1232 8.15842 45.9298C8.17649 45.7334 8.23342 45.5425 8.32589 45.3683C8.41837 45.1941 8.54455 45.04 8.69711 44.915L12.3216 41.9274C12.4138 42.3212 12.5359 42.7075 12.6867 43.0829C12.943 43.7196 13.2906 44.3156 13.7186 44.8522C13.7217 44.8559 13.7247 44.8604 13.7277 44.8641C13.7711 44.918 13.8154 44.9679 13.8593 45.0193C13.8952 45.0615 13.9307 45.1056 13.9671 45.1462C13.9932 45.1753 14.02 45.2019 14.0464 45.2304C14.1012 45.2894 14.1558 45.3494 14.2111 45.4051C14.2407 45.4348 14.2706 45.4616 14.3002 45.4905C14.353 45.5416 14.4055 45.5936 14.4582 45.6419C14.4815 45.6632 14.5048 45.6821 14.5282 45.7028C14.5874 45.7553 14.6467 45.8083 14.7059 45.8575C14.7181 45.8675 14.7293 45.8764 14.7423 45.8864C14.8947 46.0112 15.0456 46.1258 15.1935 46.2284L15.1968 46.2305C15.5342 46.4648 15.8914 46.6692 16.2644 46.8413C16.2506 47.2111 16.2254 47.6075 16.1893 48.026C16.1886 48.0283 16.189 48.0304 16.1888 48.0325ZM22.252 61.1043C20.216 61.1043 17.9465 58.6276 16.3962 56.1572C16.6584 55.6419 16.8577 55.097 16.9897 54.5341C17.4137 52.7218 17.7387 50.8878 17.9633 49.0402H26.5412C26.7656 50.8879 27.0907 52.722 27.515 54.5343C27.6469 55.0971 27.8461 55.642 28.1082 56.1572C26.5577 58.6276 24.2882 61.1043 22.252 61.1043ZM30.1018 42.3471C29.8619 42.9568 29.5088 43.5156 29.061 43.9939L29.0587 43.9965C28.5085 44.5937 27.8183 45.0444 27.0502 45.3078C26.8525 45.3615 26.6778 45.4787 26.5533 45.6415C26.4288 45.8042 26.3613 46.0035 26.3613 46.2084C26.3613 46.374 26.3639 46.5439 26.369 46.7179C26.3713 46.8028 26.3753 46.8891 26.3786 46.9745C26.3811 47.0413 26.3828 47.1054 26.386 47.1735H18.1179C18.1214 47.1035 18.1231 47.0368 18.1256 46.9682C18.1289 46.8852 18.1329 46.8017 18.1352 46.7191C18.1399 46.5448 18.1427 46.374 18.1427 46.2079C18.1424 46.011 18.0797 45.8193 17.9636 45.6603C17.8476 45.5013 17.6841 45.3831 17.4967 45.3228C17.4841 45.3186 17.4733 45.3125 17.4596 45.309C17.2678 45.2489 17.0814 45.1729 16.9022 45.0818L16.8826 45.0718C16.8262 45.0435 16.7674 45.013 16.7055 44.9784C16.6918 44.971 16.6768 44.9619 16.6629 44.9537C16.6066 44.9222 16.5492 44.8888 16.4897 44.8522C16.4685 44.8392 16.4464 44.8238 16.4249 44.81C16.3701 44.7752 16.3152 44.74 16.2588 44.7003C16.231 44.6812 16.2023 44.659 16.1741 44.6385C16.1221 44.601 16.0703 44.5634 16.0171 44.5219C15.9837 44.4957 15.9499 44.4661 15.9163 44.4383C15.8673 44.398 15.8185 44.3583 15.7693 44.3142C15.7322 44.2811 15.6949 44.2442 15.6578 44.2088C15.6111 44.1652 15.5656 44.1227 15.5197 44.0758C15.4803 44.0354 15.4415 43.9909 15.403 43.9482C15.3599 43.9015 15.3165 43.8549 15.2738 43.8052C15.2311 43.7555 15.1942 43.7049 15.1546 43.6542C15.1149 43.6036 15.0741 43.5541 15.0351 43.5005C14.9962 43.4468 14.9574 43.3852 14.9185 43.3269C14.8795 43.2686 14.8438 43.218 14.8081 43.1596C14.7703 43.0973 14.7351 43.0297 14.6989 42.9641C14.6653 42.9035 14.6306 42.8451 14.5986 42.7817C14.5636 42.7117 14.5321 42.6361 14.4992 42.5629C14.4684 42.4945 14.436 42.4287 14.4073 42.3571C14.4041 42.3489 14.401 42.3401 14.3978 42.3319C14.3322 42.1658 14.2746 41.9945 14.2237 41.8186C14.2188 41.8023 14.2139 41.7867 14.2093 41.7701C14.1626 41.6028 14.1229 41.4302 14.0886 41.2543C14.0802 41.2107 14.0725 41.1661 14.0653 41.1213C14.0401 40.9762 14.02 40.8278 14.0032 40.678C13.9962 40.6129 13.9892 40.5476 13.9837 40.4804C13.9718 40.3405 13.9645 40.1951 13.9603 40.0491C13.9575 39.9585 13.9561 39.8661 13.9561 39.7717C13.9561 39.6317 13.9585 39.4889 13.965 39.3443C13.9687 39.2603 13.9741 39.1742 13.9802 39.0876C13.9916 38.922 14.0058 38.7547 14.0268 38.584C14.034 38.5198 14.0434 38.4538 14.052 38.3882C14.077 38.2002 14.1052 38.01 14.14 37.8162C14.1486 37.7672 14.1589 37.7165 14.1684 37.6669C14.2097 37.4497 14.2552 37.2301 14.3084 37.0059C14.3142 36.9807 14.3212 36.9546 14.3273 36.9292C14.796 35.1297 15.4697 33.39 16.3351 31.7441C16.3423 31.7299 16.3493 31.7156 16.3565 31.7012C16.506 31.4085 16.6628 31.1119 16.8269 30.8116C16.8542 30.7614 16.8822 30.7106 16.9101 30.66C17.0735 30.3611 17.2435 30.0599 17.4215 29.7545L17.4579 29.7457C16.4811 32.776 15.3116 38.4944 19.1563 41.2436C20.0594 41.8894 21.1418 42.2366 22.252 42.2366C23.3622 42.2366 24.4446 41.8894 25.3476 41.2436C29.1929 38.4934 28.0229 32.7748 27.0458 29.7457L27.0827 29.7545C30.2037 35.1139 31.248 39.4635 30.1018 42.3471Z" fill="url(#paint0_linear_68_521)"/>
<path d="M59.8549 4.32544C58.3083 4.32544 56.7964 4.78406 55.5104 5.64331C54.2245 6.50256 53.2222 7.72385 52.6304 9.15272C52.0385 10.5816 51.8837 12.1539 52.1854 13.6708C52.4872 15.1877 53.232 16.581 54.3256 17.6746C55.4192 18.7682 56.8126 19.5129 58.3295 19.8146C59.8463 20.1163 61.4186 19.9614 62.8475 19.3695C64.2764 18.7776 65.4976 17.7753 66.3568 16.4894C67.216 15.2034 67.6746 13.6915 67.6746 12.1449C67.6722 10.0717 66.8476 8.08415 65.3816 6.61822C63.9156 5.15229 61.928 4.32772 59.8549 4.32544ZM59.8549 18.0982C58.6774 18.0982 57.5264 17.7491 56.5474 17.0949C55.5684 16.4407 54.8053 15.511 54.3547 14.4231C53.9041 13.3353 53.7862 12.1383 54.0159 10.9835C54.2457 9.82864 54.8126 8.76787 55.6452 7.93528C56.4778 7.10269 57.5386 6.5357 58.6934 6.30599C59.8483 6.07628 61.0453 6.19417 62.1331 6.64476C63.2209 7.09536 64.1507 7.85841 64.8049 8.83742C65.459 9.81644 65.8082 10.9675 65.8082 12.1449C65.8064 13.7233 65.1787 15.2365 64.0626 16.3526C62.9465 17.4687 61.4332 18.0965 59.8549 18.0982Z" fill="url(#paint1_linear_68_521)"/>
<path d="M58.9932 1.29073C59.0164 1.3472 59.0454 1.40114 59.0796 1.4517C59.1125 1.5037 59.1517 1.55149 59.1962 1.59402C59.3268 1.72387 59.493 1.81217 59.6737 1.84778C59.8544 1.88339 60.0416 1.86472 60.2118 1.79412C60.3819 1.72352 60.5273 1.60416 60.6297 1.45106C60.7322 1.29796 60.787 1.11798 60.7873 0.93378C60.7876 0.872741 60.7822 0.811808 60.771 0.751808C60.758 0.692096 60.74 0.633569 60.7173 0.576834C60.6932 0.520809 60.6643 0.466953 60.631 0.415858C60.5968 0.364863 60.5577 0.317283 60.5143 0.273779C60.4712 0.230535 60.4235 0.192124 60.372 0.159229C60.3217 0.124557 60.2678 0.0956047 60.2111 0.0729087C60.1546 0.049294 60.096 0.0313201 60.0361 0.0192499C59.9161 -0.00641663 59.7921 -0.00641663 59.6721 0.0192499C59.6123 0.0316526 59.5537 0.0496169 59.4972 0.0729087C59.4407 0.0961047 59.3867 0.125029 59.3362 0.159229C59.1822 0.26088 59.0621 0.406294 58.9914 0.576759C58.9207 0.747225 58.9027 0.934942 58.9396 1.11575C58.9514 1.17576 58.9694 1.23439 58.9932 1.29073Z" fill="url(#paint2_linear_68_521)"/>
<path d="M60.7173 22.9992C60.6937 22.943 60.6648 22.8891 60.631 22.8382C60.5281 22.6843 60.382 22.5642 60.2111 22.4929C60.1543 22.4709 60.0958 22.4538 60.0361 22.4416C59.8856 22.4118 59.7301 22.4193 59.5833 22.4637C59.4364 22.508 59.3027 22.5878 59.1939 22.6959C59.1509 22.7392 59.1126 22.7869 59.0796 22.8382C59.045 22.8885 59.016 22.9425 58.9933 22.9992C58.9694 23.0555 58.9514 23.1142 58.9396 23.1742C58.9089 23.3247 58.9161 23.4804 58.9603 23.6275C59.0046 23.7746 59.0846 23.9085 59.1932 24.0171C59.3018 24.1257 59.4356 24.2057 59.5827 24.2499C59.7298 24.2942 59.8856 24.3013 60.0361 24.2707C60.0961 24.2588 60.1547 24.2409 60.2111 24.2172C60.2677 24.1944 60.3217 24.1654 60.372 24.1307C60.4235 24.0978 60.4712 24.0595 60.5144 24.0164C60.6889 23.8409 60.787 23.6036 60.7873 23.3561C60.7882 23.295 60.7819 23.2339 60.7687 23.1742C60.7576 23.1142 60.7404 23.0556 60.7173 22.9992Z" fill="url(#paint3_linear_68_521)"/>
<path d="M71.9276 11.7868C71.9044 11.7304 71.8754 11.6764 71.8413 11.6258C71.8078 11.5756 71.7695 11.5287 71.727 11.4859C71.6179 11.3781 71.4842 11.2984 71.3375 11.2537C71.1908 11.209 71.0354 11.2006 70.8848 11.2292C70.8247 11.2409 70.7661 11.2588 70.7098 11.2826C70.6529 11.3049 70.5989 11.3339 70.5488 11.369C70.4968 11.4019 70.449 11.4411 70.4065 11.4856C70.2759 11.6161 70.1869 11.7825 70.1508 11.9636C70.1147 12.1447 70.1332 12.3325 70.2039 12.5031C70.2746 12.6737 70.3943 12.8195 70.5479 12.922C70.7015 13.0245 70.8821 13.0792 71.0667 13.079C71.3141 13.0784 71.5511 12.9799 71.7259 12.805C71.9008 12.6302 71.9993 12.3932 71.9999 12.1459C71.9996 12.084 71.9934 12.0222 71.9813 11.9615C71.9687 11.9018 71.9508 11.8433 71.9276 11.7868Z" fill="url(#paint4_linear_68_521)"/>
<path d="M48.4622 11.2295C48.4021 11.2412 48.3435 11.2591 48.2872 11.2829C48.2308 11.3062 48.1768 11.3352 48.1262 11.3693C48.0742 11.4022 48.0264 11.4414 47.9839 11.4859C47.8096 11.6615 47.7115 11.8987 47.7109 12.1461C47.7114 12.2073 47.7176 12.2683 47.7296 12.3284C47.7418 12.3874 47.7597 12.4452 47.7833 12.5008C47.8059 12.5582 47.8349 12.613 47.8696 12.6641C47.9032 12.7143 47.9414 12.7611 47.9839 12.804C48.0978 12.9181 48.2394 13.0007 48.3948 13.0438C48.5502 13.0869 48.7141 13.089 48.8705 13.0499C49.0269 13.0108 49.1705 12.9318 49.2874 12.8207C49.4042 12.7095 49.4902 12.57 49.5371 12.4157C49.5839 12.2615 49.59 12.0977 49.5547 11.9403C49.5194 11.783 49.444 11.6375 49.3357 11.518C49.2275 11.3985 49.0901 11.3091 48.937 11.2585C48.7839 11.2079 48.6203 11.1981 48.4622 11.2295Z" fill="url(#paint5_linear_68_521)"/>
<path d="M67.5994 3.30501C67.5394 3.31615 67.4808 3.33343 67.4244 3.35657C67.3683 3.38052 67.3145 3.40932 67.2634 3.44265C67.2124 3.47694 67.1647 3.516 67.1211 3.5593C66.9468 3.73488 66.8487 3.97211 66.8481 4.21954C66.8486 4.28065 66.8548 4.34158 66.8668 4.40151C66.879 4.46143 66.897 4.52003 66.9205 4.57648C66.9437 4.633 66.9726 4.68702 67.0068 4.73769C67.0397 4.78833 67.0781 4.83526 67.1211 4.87767C67.1641 4.92171 67.2118 4.96083 67.2634 4.99432C67.3139 5.0287 67.3678 5.05763 67.4244 5.08064C67.4807 5.10447 67.5394 5.12245 67.5994 5.1343C67.6593 5.1464 67.7202 5.15265 67.7813 5.15297C67.8425 5.15277 67.9034 5.14651 67.9633 5.1343C68.0233 5.12245 68.0819 5.10447 68.1383 5.08064C68.1948 5.05763 68.2488 5.0287 68.2993 4.99432C68.3513 4.96143 68.3991 4.92225 68.4416 4.87767C68.4847 4.83471 68.5237 4.78785 68.5582 4.73769C68.5915 4.68649 68.6204 4.63256 68.6445 4.57648C68.6673 4.51997 68.6845 4.46136 68.6959 4.40151C68.709 4.34176 68.7153 4.28071 68.7145 4.21954C68.7148 4.08151 68.6843 3.94517 68.6254 3.82036C68.5664 3.69555 68.4805 3.5854 68.3738 3.49787C68.2671 3.41035 68.1422 3.34764 68.0083 3.31429C67.8743 3.28093 67.7347 3.27776 67.5994 3.30501Z" fill="url(#paint6_linear_68_521)"/>
<path d="M52.7897 19.7143C52.7656 19.6583 52.7367 19.6044 52.7034 19.5533C52.669 19.5023 52.63 19.4547 52.5867 19.411C52.5439 19.3685 52.497 19.3303 52.4467 19.2969C52.3957 19.2621 52.341 19.2331 52.2834 19.2106C52.2278 19.1869 52.17 19.1689 52.1108 19.1567C51.9898 19.1334 51.8655 19.1334 51.7445 19.1567C51.6846 19.1692 51.6261 19.1872 51.5695 19.2106C51.513 19.2336 51.459 19.2626 51.4086 19.2969C51.3583 19.3303 51.3114 19.3685 51.2686 19.411C51.2247 19.4541 51.1856 19.5018 51.1519 19.5533C51.1177 19.6039 51.0888 19.6578 51.0656 19.7143C51.0421 19.7708 51.0241 19.8294 51.012 19.8893C51.0007 19.9493 50.9953 20.0102 50.9956 20.0712C50.9963 20.2245 51.0343 20.3753 51.1062 20.5107C51.1781 20.646 51.2819 20.7618 51.4086 20.8481C51.4596 20.8815 51.5135 20.9104 51.5695 20.9345C51.6262 20.9569 51.6847 20.9741 51.7445 20.9858C51.8043 20.9989 51.8653 21.0052 51.9265 21.0044C52.0491 21.0046 52.1705 20.9806 52.2838 20.9337C52.3971 20.8869 52.5 20.8181 52.5867 20.7315C52.6734 20.6448 52.7421 20.5418 52.789 20.4285C52.8358 20.3153 52.8598 20.1938 52.8597 20.0712C52.86 20.0102 52.8546 19.9493 52.8433 19.8893C52.8301 19.8296 52.8121 19.7711 52.7897 19.7143Z" fill="url(#paint7_linear_68_521)"/>
<path d="M68.6445 19.7143C68.6204 19.6583 68.5915 19.6044 68.5582 19.5533C68.5232 19.5029 68.4842 19.4553 68.4416 19.411C68.3322 19.3038 68.1984 19.2246 68.0517 19.1803C67.9051 19.136 67.7498 19.1279 67.5994 19.1567C67.5393 19.1686 67.4807 19.1866 67.4244 19.2106C67.3678 19.2336 67.3139 19.2626 67.2634 19.2969C67.2124 19.3303 67.1647 19.3685 67.1211 19.411C67.0786 19.4548 67.0403 19.5024 67.0068 19.5533C66.9726 19.6039 66.9437 19.6578 66.9205 19.7143C66.897 19.7708 66.879 19.8294 66.8668 19.8893C66.8548 19.9492 66.8486 20.0102 66.8481 20.0713C66.848 20.1939 66.872 20.3153 66.9189 20.4286C66.9657 20.5419 67.0344 20.6448 67.1211 20.7315C67.2078 20.8182 67.3108 20.8869 67.424 20.9337C67.5373 20.9806 67.6587 21.0046 67.7813 21.0045C67.8425 21.0052 67.9036 20.9989 67.9633 20.9858C68.0232 20.9747 68.0819 20.9575 68.1383 20.9345C68.1944 20.9104 68.2482 20.8816 68.2993 20.8481C68.3508 20.8146 68.3986 20.7755 68.4416 20.7315C68.5284 20.6449 68.5972 20.542 68.644 20.4286C68.6909 20.3153 68.7148 20.1939 68.7145 20.0713C68.7153 20.0101 68.709 19.949 68.6959 19.8893C68.6845 19.8294 68.6673 19.7708 68.6445 19.7143Z" fill="url(#paint8_linear_68_521)"/>
<path d="M51.0655 4.57558C51.0897 4.63166 51.1185 4.68558 51.1518 4.73679C51.1856 4.78748 51.2247 4.83441 51.2685 4.87677C51.3106 4.92076 51.3576 4.95989 51.4084 4.99342C51.4589 5.02779 51.5129 5.05673 51.5694 5.07974C51.626 5.10292 51.6845 5.12088 51.7444 5.1334C51.8652 5.15828 51.9898 5.15828 52.1107 5.1334C52.1698 5.1212 52.2277 5.10323 52.2833 5.07974C52.3403 5.05773 52.3944 5.02873 52.4443 4.99342C52.546 4.92498 52.6339 4.8379 52.7032 4.73679C52.7365 4.68558 52.7654 4.63166 52.7896 4.57558C52.8131 4.51913 52.831 4.46053 52.8432 4.40061C52.8552 4.34068 52.8615 4.27975 52.8619 4.21863C52.8617 4.09588 52.8373 3.97438 52.79 3.86109C52.7428 3.7478 52.6736 3.64493 52.5866 3.5584C52.4997 3.47164 52.3967 3.40276 52.2833 3.35566C52.2276 3.33284 52.1698 3.31557 52.1107 3.3041C51.9752 3.2766 51.8353 3.27956 51.7012 3.31279C51.567 3.34601 51.4419 3.40867 51.3349 3.49621C51.2279 3.58375 51.1418 3.69398 51.0827 3.81893C51.0236 3.94388 50.993 4.08041 50.9932 4.21863C50.9936 4.27975 50.9998 4.34068 51.0118 4.40061C51.024 4.46053 51.042 4.51913 51.0655 4.57558Z" fill="url(#paint9_linear_68_521)"/>
<path d="M20.3357 18.2842C20.4738 18.2848 20.6103 18.2545 20.7353 18.1957C20.8602 18.1369 20.9705 18.051 21.0581 17.9442C21.1457 17.8374 21.2084 17.7125 21.2416 17.5784C21.2749 17.4444 21.2778 17.3046 21.2502 17.1693C21.2385 17.1092 21.2205 17.0506 21.1966 16.9943C21.1738 16.938 21.1457 16.884 21.1126 16.8331C21.0782 16.7822 21.0391 16.7345 20.996 16.6908C20.8207 16.516 20.5832 16.4178 20.3357 16.4178C20.0882 16.4178 19.8508 16.516 19.6755 16.6908C19.6324 16.734 19.594 16.7817 19.5612 16.8331C19.5264 16.8834 19.4975 16.9375 19.4748 16.9943C19.451 17.0506 19.433 17.1092 19.4212 17.1693C19.3943 17.3045 19.3978 17.444 19.4313 17.5778C19.4648 17.7116 19.5275 17.8362 19.615 17.9428C19.7024 18.0494 19.8124 18.1354 19.9371 18.1944C20.0617 18.2534 20.1978 18.2841 20.3357 18.2842Z" fill="url(#paint10_linear_68_521)"/>
<path d="M22.2516 52.1111C22.0041 52.1111 21.7667 52.2094 21.5917 52.3844C21.4167 52.5594 21.3184 52.7968 21.3184 53.0443V53.2776C21.3184 53.5251 21.4167 53.7624 21.5917 53.9374C21.7667 54.1125 22.0041 54.2108 22.2516 54.2108C22.4991 54.2108 22.7364 54.1125 22.9114 53.9374C23.0864 53.7624 23.1847 53.5251 23.1847 53.2776V53.0443C23.1847 52.7968 23.0864 52.5594 22.9114 52.3844C22.7364 52.2094 22.4991 52.1111 22.2516 52.1111Z" fill="url(#paint11_linear_68_521)"/>
<defs>
<linearGradient id="paint0_linear_68_521" x1="0.237982" y1="75.5277" x2="40.1" y2="75.5277" gradientUnits="userSpaceOnUse">
<stop stop-color="#FFF6AB"/>
<stop offset="0.184" stop-color="#FBC85F"/>
<stop offset="0.464" stop-color="#D19422"/>
<stop offset="0.768979" stop-color="#EDBA56"/>
<stop offset="1" stop-color="#B47E28"/>
</linearGradient>
<linearGradient id="paint1_linear_68_521" x1="52.1264" y1="19.9648" x2="67.4074" y2="19.9648" gradientUnits="userSpaceOnUse">
<stop stop-color="#FFF6AB"/>
<stop offset="0.184" stop-color="#FBC85F"/>
<stop offset="0.464" stop-color="#D19422"/>
<stop offset="0.768979" stop-color="#EDBA56"/>
<stop offset="1" stop-color="#B47E28"/>
</linearGradient>
<linearGradient id="paint2_linear_68_521" x1="58.9318" y1="1.86538" x2="60.7554" y2="1.86538" gradientUnits="userSpaceOnUse">
<stop stop-color="#FFF6AB"/>
<stop offset="0.184" stop-color="#FBC85F"/>
<stop offset="0.464" stop-color="#D19422"/>
<stop offset="0.768979" stop-color="#EDBA56"/>
<stop offset="1" stop-color="#B47E28"/>
</linearGradient>
<linearGradient id="paint3_linear_68_521" x1="58.9318" y1="24.2894" x2="60.7555" y2="24.2894" gradientUnits="userSpaceOnUse">
<stop stop-color="#FFF6AB"/>
<stop offset="0.184" stop-color="#FBC85F"/>
<stop offset="0.464" stop-color="#D19422"/>
<stop offset="0.768979" stop-color="#EDBA56"/>
<stop offset="1" stop-color="#B47E28"/>
</linearGradient>
<linearGradient id="paint4_linear_68_521" x1="70.1437" y1="13.079" x2="71.968" y2="13.079" gradientUnits="userSpaceOnUse">
<stop stop-color="#FFF6AB"/>
<stop offset="0.184" stop-color="#FBC85F"/>
<stop offset="0.464" stop-color="#D19422"/>
<stop offset="0.768979" stop-color="#EDBA56"/>
<stop offset="1" stop-color="#B47E28"/>
</linearGradient>
<linearGradient id="paint5_linear_68_521" x1="47.7218" y1="13.0778" x2="49.5455" y2="13.0778" gradientUnits="userSpaceOnUse">
<stop stop-color="#FFF6AB"/>
<stop offset="0.184" stop-color="#FBC85F"/>
<stop offset="0.464" stop-color="#D19422"/>
<stop offset="0.768979" stop-color="#EDBA56"/>
<stop offset="1" stop-color="#B47E28"/>
</linearGradient>
<linearGradient id="paint6_linear_68_521" x1="66.859" y1="5.15297" x2="68.6827" y2="5.15297" gradientUnits="userSpaceOnUse">
<stop stop-color="#FFF6AB"/>
<stop offset="0.184" stop-color="#FBC85F"/>
<stop offset="0.464" stop-color="#D19422"/>
<stop offset="0.768979" stop-color="#EDBA56"/>
<stop offset="1" stop-color="#B47E28"/>
</linearGradient>
<linearGradient id="paint7_linear_68_521" x1="51.0065" y1="21.0045" x2="52.8278" y2="21.0045" gradientUnits="userSpaceOnUse">
<stop stop-color="#FFF6AB"/>
<stop offset="0.184" stop-color="#FBC85F"/>
<stop offset="0.464" stop-color="#D19422"/>
<stop offset="0.768979" stop-color="#EDBA56"/>
<stop offset="1" stop-color="#B47E28"/>
</linearGradient>
<linearGradient id="paint8_linear_68_521" x1="66.859" y1="21.0045" x2="68.6827" y2="21.0045" gradientUnits="userSpaceOnUse">
<stop stop-color="#FFF6AB"/>
<stop offset="0.184" stop-color="#FBC85F"/>
<stop offset="0.464" stop-color="#D19422"/>
<stop offset="0.768979" stop-color="#EDBA56"/>
<stop offset="1" stop-color="#B47E28"/>
</linearGradient>
<linearGradient id="paint9_linear_68_521" x1="51.0041" y1="5.15206" x2="52.83" y2="5.15206" gradientUnits="userSpaceOnUse">
<stop stop-color="#FFF6AB"/>
<stop offset="0.184" stop-color="#FBC85F"/>
<stop offset="0.464" stop-color="#D19422"/>
<stop offset="0.768979" stop-color="#EDBA56"/>
<stop offset="1" stop-color="#B47E28"/>
</linearGradient>
<linearGradient id="paint10_linear_68_521" x1="19.4142" y1="18.2842" x2="21.2371" y2="18.2842" gradientUnits="userSpaceOnUse">
<stop stop-color="#FFF6AB"/>
<stop offset="0.184" stop-color="#FBC85F"/>
<stop offset="0.464" stop-color="#D19422"/>
<stop offset="0.768979" stop-color="#EDBA56"/>
<stop offset="1" stop-color="#B47E28"/>
</linearGradient>
<linearGradient id="paint11_linear_68_521" x1="21.3292" y1="54.2108" x2="23.1529" y2="54.2108" gradientUnits="userSpaceOnUse">
<stop stop-color="#FFF6AB"/>
<stop offset="0.184" stop-color="#FBC85F"/>
<stop offset="0.464" stop-color="#D19422"/>
<stop offset="0.768979" stop-color="#EDBA56"/>
<stop offset="1" stop-color="#B47E28"/>
</linearGradient>
</defs>
</svg>
