<svg width="16" height="16" viewBox="0 0 16 16" fill="none" xmlns="http://www.w3.org/2000/svg">
<path fill-rule="evenodd" clip-rule="evenodd" d="M8 0C12.4184 0 16 3.58164 16 8C16 12.4184 12.4184 16 8 16C3.58164 16 0 12.4184 0 8C0 3.58164 3.58164 0 8 0ZM11.456 8C11.456 8.60527 11.4271 9.19407 11.3718 9.76051C11.9481 9.64077 12.4731 9.49208 12.931 9.3184C13.9797 8.92103 14.6283 8.45064 14.6283 7.99998C14.6283 7.23616 13.3218 6.56906 11.3738 6.20596C11.4271 6.78228 11.4554 7.3836 11.4554 7.99998L11.456 8ZM11.1698 11.1921C10.9415 12.4052 10.5869 13.4619 10.1448 14.2737C12.0527 13.6217 13.5692 12.1236 14.2455 10.227C13.3626 10.6928 12.2541 11.0026 11.1698 11.1921ZM5.77378 14.2447C5.30799 13.3618 4.99746 12.2533 4.80864 11.169C3.59483 10.9407 2.53832 10.5861 1.72704 10.1434C2.37901 12.0519 3.8771 13.5677 5.77437 14.2448L5.77378 14.2447ZM4.62641 9.79335C4.51851 8.62887 4.51588 7.40446 4.62904 6.23882C4.05272 6.35856 3.52772 6.50725 3.06983 6.68093C2.02114 7.0783 1.37248 7.54868 1.37248 7.99934C1.37248 8.76317 2.67906 9.43027 4.62705 9.79336L4.62641 9.79335ZM4.83101 4.80724C5.0593 3.59409 5.4139 2.53693 5.856 1.72564C3.94813 2.37762 2.43166 3.87571 1.75528 5.77229C2.63818 5.30651 3.74671 4.99672 4.83101 4.80724ZM10.227 1.75528C10.6928 2.63818 11.0034 3.74669 11.1922 4.83099C12.4053 5.05928 13.4625 5.41388 14.2745 5.85664C13.6225 3.94809 12.1244 2.4323 10.2271 1.75592L10.227 1.75528ZM8.00002 14.6291C8.76384 14.6291 9.43094 13.3225 9.79404 11.3745C8.62956 11.4824 7.40448 11.485 6.23951 11.3719C6.35925 11.9482 6.50794 12.4732 6.68162 12.9311C7.07899 13.9804 7.54937 14.6284 8.00003 14.6284L8.00002 14.6291ZM9.98941 9.97777C10.1157 8.69224 10.119 7.29617 9.97691 6.01061C8.69138 5.88429 7.29531 5.88101 6.00975 6.02311C5.88343 7.30864 5.88014 8.70471 6.02225 9.99027C7.30777 10.1166 8.70385 10.1199 9.98941 9.97777ZM9.76046 4.62905C9.64072 4.05273 9.49203 3.52839 9.31835 3.06984C8.92098 2.0205 8.45059 1.3725 7.99993 1.3725C7.23611 1.3725 6.56901 2.67907 6.20591 4.62707C7.37039 4.51917 8.59547 4.51654 9.76044 4.6297L9.76046 4.62905Z" fill="url(#paint0_linear_63_74)"/>
<defs>
<linearGradient id="paint0_linear_63_74" x1="0.0933333" y1="16" x2="15.7267" y2="16" gradientUnits="userSpaceOnUse">
<stop stop-color="white"/>
<stop offset="0.184" stop-color="#DADADA"/>
<stop offset="0.464" stop-color="white"/>
<stop offset="0.664" stop-color="#CCCCCC"/>
<stop offset="0.768979" stop-color="#B8B8B8"/>
<stop offset="1" stop-color="#A2A2A2"/>
</linearGradient>
</defs>
</svg>
