<svg width="13" height="18" viewBox="0 0 13 18" fill="none" xmlns="http://www.w3.org/2000/svg">
<path fill-rule="evenodd" clip-rule="evenodd" d="M6.17265 17.7239C6.27466 17.7734 6.38662 17.7989 6.5 17.7986C6.61338 17.7989 6.72535 17.7734 6.82735 17.7239C6.92936 17.6744 7.01873 17.6023 7.08865 17.513C7.69221 16.7356 13 9.83817 13 6.5C13 4.77609 12.3152 3.12279 11.0962 1.90381C9.87721 0.684819 8.22391 0 6.5 0C4.77609 0 3.12279 0.684819 1.90381 1.90381C0.68482 3.12279 0 4.77609 0 6.5C0 9.83817 5.3078 16.7356 5.91135 17.513C5.98127 17.6023 6.07064 17.6744 6.17265 17.7239ZM2.95975 2.95975C3.89884 2.02067 5.17194 1.49223 6.5 1.49026C7.82806 1.49223 9.10116 2.02067 10.0402 2.95975C10.9793 3.89884 11.5078 5.17194 11.5097 6.5C11.5097 8.63355 8.30073 13.3974 6.5 15.8216C4.69927 13.3974 1.49026 8.63603 1.49026 6.5C1.49223 5.17194 2.02067 3.89884 2.95975 2.95975ZM4.89379 8.49145C5.36923 8.80913 5.92819 8.97869 6.5 8.97869C7.26656 8.97803 8.00154 8.67323 8.54359 8.13118C9.08563 7.58914 9.39044 6.85416 9.39109 6.08759C9.39109 5.51579 9.22153 4.95683 8.90386 4.48139C8.58618 4.00595 8.13465 3.63539 7.60637 3.41657C7.07809 3.19775 6.49679 3.1405 5.93597 3.25205C5.37515 3.3636 4.86001 3.63895 4.45568 4.04328C4.05136 4.44761 3.77601 4.96275 3.66445 5.52357C3.5529 6.08439 3.61015 6.66569 3.82897 7.19397C4.04779 7.72225 4.41835 8.17378 4.89379 8.49145ZM5.72173 4.92284C5.9521 4.76891 6.22294 4.68675 6.5 4.68675C6.87132 4.68741 7.22725 4.83521 7.48982 5.09778C7.75238 5.36034 7.90018 5.71627 7.90084 6.08759C7.90084 6.36466 7.81868 6.63549 7.66475 6.86586C7.51083 7.09623 7.29205 7.27578 7.03608 7.3818C6.78011 7.48783 6.49844 7.51557 6.22671 7.46152C5.95497 7.40747 5.70536 7.27405 5.50945 7.07814C5.31354 6.88223 5.18013 6.63262 5.12607 6.36089C5.07202 6.08915 5.09976 5.80749 5.20579 5.55152C5.31182 5.29555 5.49137 5.07676 5.72173 4.92284Z" fill="url(#paint0_linear_63_78)"/>
<defs>
<linearGradient id="paint0_linear_63_78" x1="0.0758333" y1="17.7986" x2="12.7779" y2="17.7986" gradientUnits="userSpaceOnUse">
<stop stop-color="white"/>
<stop offset="0.184" stop-color="#DADADA"/>
<stop offset="0.464" stop-color="white"/>
<stop offset="0.664" stop-color="#CCCCCC"/>
<stop offset="0.768979" stop-color="#B8B8B8"/>
<stop offset="1" stop-color="#A2A2A2"/>
</linearGradient>
</defs>
</svg>
