<?xml version="1.0" encoding="utf-8"?><svg viewBox="0 0 28 27" xmlns="http://www.w3.org/2000/svg" xmlns:xlink="http://www.w3.org/1999/xlink"><style>:root>svg{display:none}:root>svg:target{display:block}</style><svg viewBox="0 0 22 22" id="add" xmlns="http://www.w3.org/2000/svg"><path fill-rule="evenodd" clip-rule="evenodd" d="M0 11.001C0 4.935 4.934 0 11.001 0c6.066 0 11.001 4.935 11.001 11.001s-4.934 11.001-11.001 11.001C4.935 22.002 0 17.067 0 11.001zm20.43 0a9.418 9.418 0 00-9.429-9.43 9.418 9.418 0 00-9.43 9.43 9.418 9.418 0 009.43 9.43 9.418 9.418 0 009.43-9.43zm-8.642-5.5V5.49a.786.786 0 10-1.572 0v4.726H5.49a.786.786 0 100 1.572h4.726v4.724a.786.786 0 101.572 0v-4.724h4.724a.786.786 0 100-1.572H11.788V5.5z"/></svg><svg viewBox="0 0 12 8" id="arrow" xmlns="http://www.w3.org/2000/svg"><path fill-rule="evenodd" clip-rule="evenodd" d="M11.3 2.1A.99.99 0 009.9.7L6 4.6 2.1.7A.99.99 0 00.7 2.1L6 7.4l5.3-5.3z"/><defs><linearGradient id="bpaint0_linear_63_77" x1="0" y1=".043" x2="0" y2="7.274" gradientUnits="userSpaceOnUse"><stop stop-color="#fff"/><stop offset=".184" stop-color="#DADADA"/><stop offset=".464" stop-color="#fff"/><stop offset=".664" stop-color="#CCC"/><stop offset=".769" stop-color="#B8B8B8"/><stop offset="1" stop-color="#A2A2A2"/></linearGradient></defs></svg><svg viewBox="0 0 16 16" id="arrow-back" xmlns="http://www.w3.org/2000/svg"><path d="M16 7H3.83l5.59-5.59L8 0 0 8l8 8 1.41-1.41L3.83 9H16V7z"/></svg><svg viewBox="0 0 12 8" id="arrow-down" xmlns="http://www.w3.org/2000/svg"><path fill-rule="evenodd" clip-rule="evenodd" d="M11.3 2.1A.99.99 0 109.9.7L6 4.6 2.1.7A.99.99 0 00.7 2.1L6 7.4l5.3-5.3z"/></svg><svg viewBox="0 0 8 12" id="arrow-left" xmlns="http://www.w3.org/2000/svg"><path fill-rule="evenodd" clip-rule="evenodd" d="M5.6 11A.99.99 0 107 9.6L3.1 5.7 7 1.8A.99.99 0 105.6.4L.3 5.7 5.6 11z"/></svg><svg viewBox="0 0 8 12" id="arrow-right" xmlns="http://www.w3.org/2000/svg"><path fill-rule="evenodd" clip-rule="evenodd" d="M2.4.4A.99.99 0 101 1.8l3.9 3.9L1 9.6A.99.99 0 002.4 11l5.3-5.3L2.4.4z"/></svg><svg viewBox="0 0 12 7" id="arrow-top" xmlns="http://www.w3.org/2000/svg"><path fill-rule="evenodd" clip-rule="evenodd" d="M.7 5.3a.99.99 0 001.4 1.4L6 2.8l3.9 3.9a.99.99 0 101.4-1.4L6 0 .7 5.3z"/></svg><svg viewBox="0 0 26 26" id="clock" xmlns="http://www.w3.org/2000/svg"><path fill-rule="evenodd" clip-rule="evenodd" d="M13 0c7.179 0 13 5.82 13 13s-5.82 13-13 13C5.821 26 0 20.18 0 13S5.821 0 13 0zm-1.11 7.338v5.663c0 .41.223.769.554.96l4.787 2.766a1.112 1.112 0 101.114-1.924l-4.235-2.446v-5.02a1.109 1.109 0 10-2.22 0v.001zm8.727-1.954c-4.207-4.207-11.026-4.207-15.233 0-4.207 4.205-4.207 11.026 0 15.233 4.206 4.207 11.026 4.207 15.233 0 4.207-4.207 4.207-11.026 0-15.233z"/><defs><linearGradient id="hpaint0_linear_111_1133" x1=".152" y1="26" x2="25.556" y2="26" gradientUnits="userSpaceOnUse"><stop stop-color="#FFF6AB"/><stop offset=".184" stop-color="#FBC85F"/><stop offset=".464" stop-color="#D19422"/><stop offset=".769" stop-color="#EDBA56"/><stop offset="1" stop-color="#B47E28"/></linearGradient></defs></svg><svg viewBox="0 0 22 16" id="contact" xmlns="http://www.w3.org/2000/svg"><path d="M19.641 0H2.359C1.058 0 0 1.027 0 2.291V13.71C0 14.973 1.058 16 2.359 16h17.282C20.942 16 22 14.973 22 13.709V2.29C22 1.027 20.942 0 19.641 0zm-8.175 8.42a.7.7 0 01-.93 0L2.754 1.491h16.497l-7.786 6.93zM7.793 8l-6.258 5.574V2.427l6.258 5.574zm1.136 1.012l.569.508a2.255 2.255 0 003.004 0l.57-.508 6.18 5.499-16.498-.001L8.928 9.01v.001zm5.28-1.011l6.257-5.568v11.135l-6.257-5.567z"/></svg><svg viewBox="0 0 22 22" id="create" xmlns="http://www.w3.org/2000/svg"><path fill-rule="evenodd" clip-rule="evenodd" d="M0 11.001C0 4.935 4.934 0 11.001 0c6.066 0 11.001 4.935 11.001 11.001s-4.934 11.001-11.001 11.001C4.935 22.002 0 17.067 0 11.001zm20.43 0a9.418 9.418 0 00-9.429-9.43 9.418 9.418 0 00-9.43 9.43 9.418 9.418 0 009.43 9.43 9.418 9.418 0 009.43-9.43zm-8.642-5.5V5.49a.786.786 0 10-1.572 0v4.726H5.49a.786.786 0 100 1.572h4.726v4.724a.786.786 0 101.572 0v-4.724h4.724a.786.786 0 100-1.572H11.788V5.5z"/></svg><svg viewBox="0 0 21 20" id="filter" xmlns="http://www.w3.org/2000/svg"><path d="M.974 10.955h10.418a3.206 3.206 0 003.048 2.227 3.206 3.206 0 003.048-2.227h2.346a.975.975 0 000-1.948h-2.346A3.206 3.206 0 0014.44 6.78a3.205 3.205 0 00-3.047 2.227H.973a.975.975 0 000 1.948zM14.44 8.728c.69 0 1.253.563 1.253 1.253s-.563 1.252-1.253 1.252-1.252-.562-1.252-1.252.562-1.253 1.252-1.253zM.974 4.175h2.347a3.206 3.206 0 003.047 2.227 3.206 3.206 0 003.048-2.227h10.418a.975.975 0 000-1.948H9.416A3.206 3.206 0 006.368 0a3.206 3.206 0 00-3.047 2.227H.974a.975.975 0 000 1.948zm5.394-2.227c.69 0 1.253.562 1.253 1.253 0 .69-.562 1.252-1.253 1.252-.69 0-1.252-.562-1.252-1.252s.562-1.253 1.252-1.253zM19.871 15.787H9.45a3.206 3.206 0 00-3.048-2.227 3.206 3.206 0 00-3.047 2.227H1.008a.975.975 0 000 1.948h2.347a3.206 3.206 0 003.047 2.227 3.206 3.206 0 003.048-2.227H19.87a.975.975 0 000-1.948zM6.402 18.013c-.69 0-1.253-.562-1.253-1.252s.563-1.253 1.253-1.253 1.252.563 1.252 1.253-.562 1.253-1.252 1.253z"/></svg><svg viewBox="0 0 21 21" id="gallery" xmlns="http://www.w3.org/2000/svg"><path d="M18.312 0H2.688A2.689 2.689 0 000 2.688v15.624A2.689 2.689 0 002.688 21h15.624A2.689 2.689 0 0021 18.312V2.688A2.689 2.689 0 0018.312 0zm-16.8 9.281l18.017.001v2.437l-18.058-.001.04-2.437zm0 3.906l18.017.001v2.436H1.471l.04-2.437zM2.688 1.46h15.624a1.228 1.228 0 011.217 1.228v5.124H1.471V2.688c0-.674.543-1.222 1.217-1.228zm15.624 18.08H2.688a1.228 1.228 0 01-1.217-1.228v-1.218h18.058v1.218c0 .674-.543 1.222-1.217 1.228z"/></svg><svg viewBox="0 0 16 16" id="glob" xmlns="http://www.w3.org/2000/svg"><path fill-rule="evenodd" clip-rule="evenodd" d="M8 0a8 8 0 110 16A8 8 0 018 0zm3.456 8c0 .605-.029 1.194-.084 1.76.576-.12 1.101-.268 1.559-.442 1.049-.397 1.697-.867 1.697-1.318 0-.764-1.306-1.43-3.254-1.794.053.576.081 1.178.081 1.794h.001zm-.286 3.192c-.229 1.213-.583 2.27-1.025 3.082a6.647 6.647 0 004.1-4.047c-.882.466-1.99.776-3.075.965zm-5.396 3.053c-.466-.883-.777-1.992-.965-3.076-1.214-.228-2.27-.583-3.082-1.026a6.648 6.648 0 004.047 4.102zM4.626 9.793A19.093 19.093 0 014.63 6.24c-.576.12-1.101.268-1.56.442-1.048.397-1.697.868-1.697 1.318 0 .764 1.307 1.431 3.255 1.794zm.205-4.986c.228-1.213.583-2.27 1.025-3.081a6.647 6.647 0 00-4.1 4.046c.882-.465 1.99-.775 3.075-.965zm5.396-3.052c.466.883.776 1.992.965 3.076 1.213.228 2.27.583 3.082 1.026a6.645 6.645 0 00-4.047-4.101zM8 14.63c.764 0 1.43-1.306 1.794-3.255-1.164.108-2.39.111-3.554-.002.12.576.268 1.101.442 1.56.397 1.048.867 1.696 1.318 1.696v.001zm1.99-4.651c.126-1.286.129-2.682-.013-3.967a19.595 19.595 0 00-3.967.012 19.594 19.594 0 00.012 3.967c1.286.127 2.682.13 3.967-.012zm-.23-5.349c-.12-.576-.268-1.1-.442-1.56C8.921 2.022 8.451 1.374 8 1.374c-.764 0-1.431 1.306-1.794 3.254 1.164-.108 2.39-.11 3.554.003z"/><defs><linearGradient id="mpaint0_linear_63_74" x1=".093" y1="16" x2="15.727" y2="16" gradientUnits="userSpaceOnUse"><stop stop-color="#fff"/><stop offset=".184" stop-color="#DADADA"/><stop offset=".464" stop-color="#fff"/><stop offset=".664" stop-color="#CCC"/><stop offset=".769" stop-color="#B8B8B8"/><stop offset="1" stop-color="#A2A2A2"/></linearGradient></defs></svg><svg viewBox="0 0 28 27" id="line" xmlns="http://www.w3.org/2000/svg"><path fill-rule="evenodd" clip-rule="evenodd" d="M14.31.667c7.524 0 13.644 4.967 13.644 11.072 0 2.443-.947 4.644-2.924 6.812-2.863 3.295-9.263 7.308-10.72 7.921-1.415.597-1.252-.336-1.187-.705l.006-.03a803.6 803.6 0 00.194-1.168c.046-.349.094-.89-.044-1.234-.153-.38-.758-.577-1.202-.673C5.521 21.796.667 17.212.667 11.74.667 5.634 6.787.667 14.31.667zm-2.766 8.122h-.968a.26.26 0 00-.26.26v5.955c0 .144.116.26.26.26h.968a.26.26 0 00.26-.26V9.049a.26.26 0 00-.26-.26zm-2.047 6.215a.26.26 0 01-.26.26H5.402a.26.26 0 01-.26-.26V9.049a.26.26 0 01.26-.26h.968c.143 0 .26.117.26.26v4.726h2.605c.143 0 .26.118.26.26v.969zm10.085.26h3.833a.26.26 0 00.26-.26v-.968a.261.261 0 00-.26-.26H20.81V12.77h2.605a.26.26 0 00.26-.26v-.968a.261.261 0 00-.26-.261H20.81v-1.005h2.605a.26.26 0 00.26-.26v-.968a.261.261 0 00-.26-.26h-3.833a.26.26 0 00-.26.26v5.955c0 .144.116.26.26.26zm-2.419-6.475h.968a.26.26 0 01.26.26v5.955a.26.26 0 01-.26.26h-.962a.263.263 0 01-.069-.01h-.003a.344.344 0 01-.018-.006l-.009-.003a.195.195 0 01-.025-.011l-.008-.005-.016-.01-.003-.002a.262.262 0 01-.067-.065l-2.728-3.684v3.536a.26.26 0 01-.26.26h-.968a.26.26 0 01-.26-.26V9.049a.26.26 0 01.26-.26h.985l.014.002.011.002.016.003.01.003.015.005.009.003.015.007.008.004a.21.21 0 01.014.008l.008.004.014.01.007.005.014.012.005.005.016.016.002.002a.26.26 0 01.02.027l2.725 3.679V9.049a.26.26 0 01.26-.26z"/></svg><svg viewBox="0 0 22 18" id="mail" xmlns="http://www.w3.org/2000/svg"><path d="M19.8 4.5L11 10.125 2.2 4.5V2.25L11 7.875l8.8-5.625V4.5zm0-4.5H2.2C.979 0 0 1.001 0 2.25v13.5c0 .597.232 1.169.644 1.591.413.422.973.659 1.556.659h17.6c.584 0 1.143-.237 1.556-.659.412-.422.644-.994.644-1.591V2.25C22 1.001 21.01 0 19.8 0z"/></svg><svg viewBox="0 0 22 20" id="message" xmlns="http://www.w3.org/2000/svg"><path d="M16.893 6.057c-.794 0-1.51.493-1.815 1.247a2.062 2.062 0 00.426 2.2c.562.578 1.407.75 2.14.438a2.02 2.02 0 001.213-1.866c0-.535-.207-1.049-.575-1.427a1.938 1.938 0 00-1.389-.592zm0 2.423a.393.393 0 01-.363-.25.413.413 0 01.085-.438.384.384 0 01.428-.088.41.41 0 01.128.658.388.388 0 01-.278.118zM11 6.057c-.794 0-1.51.493-1.815 1.247a2.062 2.062 0 00.426 2.2c.562.578 1.407.75 2.14.438a2.02 2.02 0 001.213-1.866c0-.535-.207-1.049-.575-1.427A1.938 1.938 0 0011 6.057zm0 2.423a.393.393 0 01-.363-.25.413.413 0 01.085-.438.385.385 0 01.428-.088.41.41 0 01.128.658.388.388 0 01-.278.118zM5.107 6.057c-.794 0-1.51.493-1.815 1.247a2.062 2.062 0 00.426 2.2c.562.578 1.407.75 2.14.438a2.02 2.02 0 001.213-1.866c0-.535-.207-1.049-.575-1.427a1.938 1.938 0 00-1.389-.592zm0 2.423a.393.393 0 01-.363-.25.413.413 0 01.085-.438.385.385 0 01.429-.088.41.41 0 01.128.658.388.388 0 01-.279.118zM19.643 0H2.357C1.056 0 0 1.085 0 2.423V13.73c0 1.338 1.056 2.423 2.357 2.423h5.315a.778.778 0 01.702.447l1.22 2.508c.267.547.81.892 1.406.892.595 0 1.14-.345 1.405-.892l1.22-2.508h.001a.778.778 0 01.703-.447h5.314c1.301 0 2.357-1.085 2.357-2.423V2.423c0-.642-.248-1.259-.69-1.713A2.325 2.325 0 0019.643 0zm.785 13.73c0 .215-.082.42-.23.571a.776.776 0 01-.555.236h-5.315a2.34 2.34 0 00-2.108 1.34L11 18.386l-1.22-2.509a2.34 2.34 0 00-2.109-1.34H2.357a.797.797 0 01-.786-.807V2.423c0-.445.352-.808.786-.808h17.286c.208 0 .408.086.555.238.148.15.23.356.23.57V13.73z"/></svg><svg viewBox="0 0 18 18" id="phone" xmlns="http://www.w3.org/2000/svg"><path d="M3.62 7.79c1.44 2.83 3.76 5.15 6.59 6.59l2.2-2.2c.28-.28.67-.36 1.02-.25 1.12.37 2.32.57 3.57.57a1 1 0 011 1V17a1 1 0 01-1 1A17 17 0 010 1a1 1 0 011-1h3.5a1 1 0 011 1c0 1.25.2 2.45.57 3.57.11.35.03.74-.25 1.02l-2.2 2.2z"/></svg><svg viewBox="0 0 13 18" id="pin" xmlns="http://www.w3.org/2000/svg"><path fill-rule="evenodd" clip-rule="evenodd" d="M6.173 17.724a.745.745 0 00.654 0 .745.745 0 00.262-.211C7.692 16.736 13 9.838 13 6.5a6.5 6.5 0 10-13 0c0 3.338 5.308 10.236 5.911 11.013.07.09.16.161.262.21zM2.96 2.96A5.017 5.017 0 016.5 1.49a5.017 5.017 0 015.01 5.01c0 2.134-3.21 6.897-5.01 9.322C4.7 13.397 1.49 8.636 1.49 6.5a5.017 5.017 0 011.47-3.54zM4.894 8.49a2.891 2.891 0 103.212-4.807A2.891 2.891 0 004.894 8.49zm.828-3.568a1.4 1.4 0 111.556 2.33 1.4 1.4 0 01-1.556-2.33z"/><defs><linearGradient id="rpaint0_linear_63_78" x1=".076" y1="17.799" x2="12.778" y2="17.799" gradientUnits="userSpaceOnUse"><stop stop-color="#fff"/><stop offset=".184" stop-color="#DADADA"/><stop offset=".464" stop-color="#fff"/><stop offset=".664" stop-color="#CCC"/><stop offset=".769" stop-color="#B8B8B8"/><stop offset="1" stop-color="#A2A2A2"/></linearGradient></defs></svg><svg viewBox="0 0 18 19" id="search" xmlns="http://www.w3.org/2000/svg"><path d="M7 .75a6.5 6.5 0 016.5 6.5c0 1.61-.59 3.09-1.56 4.23l.27.27H13l5 5-1.5 1.5-5-5v-.79l-.27-.27A6.516 6.516 0 017 13.75a6.5 6.5 0 110-13zm0 2c-2.5 0-4.5 2-4.5 4.5s2 4.5 4.5 4.5 4.5-2 4.5-4.5-2-4.5-4.5-4.5z"/></svg><svg viewBox="0 0 20 18" id="tg" xmlns="http://www.w3.org/2000/svg"><path d="M7.524 16.471l.31-4.754 8.523-7.779c.377-.348-.078-.517-.577-.213L5.26 10.458.71 8.997c-.976-.281-.987-.967.223-1.462L18.653.611c.81-.37 1.588.203 1.277 1.462L16.912 16.47c-.211 1.023-.821 1.27-1.665.799l-4.594-3.44L8.445 16c-.255.258-.466.471-.921.471z"/></svg><svg viewBox="0 0 18 18" id="wa" xmlns="http://www.w3.org/2000/svg"><path d="M13.275 10.764c.225.117.369.18.414.27.054.099.036.549-.189 1.062-.18.504-1.116.99-1.53 1.008-.414.018-.423.324-2.664-.657-2.241-.981-3.591-3.375-3.699-3.528-.108-.153-.864-1.242-.828-2.349.045-1.098.621-1.62.855-1.836.216-.234.459-.261.612-.234h.423c.135 0 .324-.054.495.405l.621 1.683c.054.117.09.252.009.396l-.243.369-.351.378c-.108.108-.234.225-.108.45.108.234.558.981 1.188 1.602.819.792 1.539 1.053 1.755 1.17.216.126.351.108.486-.036l.729-.846c.171-.225.315-.171.522-.099l1.503.792zM9 0a9 9 0 11-4.815 16.605L0 18l1.395-4.185A9 9 0 019 0zm0 1.8A7.2 7.2 0 001.8 9c0 1.548.486 2.979 1.314 4.149L2.25 15.75l2.601-.864A7.155 7.155 0 009 16.2 7.2 7.2 0 009 1.8z"/></svg></svg>